<?xml version="1.0" encoding="UTF-8"?>
<svg width="183px" height="159px" viewBox="0 0 183 159" version="1.1" xmlns="http://www.w3.org/2000/svg" xmlns:xlink="http://www.w3.org/1999/xlink">
    <!-- Generator: Sketch 62 (91390) - https://sketch.com -->
    <title>heart</title>
    <desc>Created with Sketch.</desc>
    <g id="current" stroke="none" stroke-width="1" fill="none" fill-rule="evenodd">
        <g id="LogoText" transform="translate(-229.000000, -320.000000)" fill="#00969B" fill-rule="nonzero">
            <g id="heart" transform="translate(229.000000, 320.000000)">
                <g id="Group" transform="translate(18.763242, 16.555802)">
                    <path d="M86.6562119,129.875179 L9.38593731,52.8231821 C3.7107194,47.1479642 0.436555224,39.2899701 0.436555224,31.2136985 C0.436555224,23.1374269 3.7107194,15.2794328 9.38593731,9.60421492 C15.0611552,3.92899701 22.9191493,0.654832836 30.9954209,0.654832836 C39.0716925,0.654832836 46.9296866,3.92899701 52.6049045,9.60421492 L129.875179,86.8744895 L123.763406,92.9862627 L46.4931313,15.7159881 C42.3458567,11.5687134 36.8889164,9.38593731 30.9954209,9.38593731 C25.1019254,9.38593731 19.6449851,11.5687134 15.4977104,15.7159881 C11.3504358,19.8632627 9.1676597,25.320203 9.1676597,31.2136985 C9.1676597,37.107194 11.3504358,42.5641343 15.4977104,46.711409 L92.7679851,123.981684 L86.6562119,129.875179 Z" id="Path"></path>
                    <path d="M98.8797582,117.433355 L21.8277612,40.3813582 C16.8073761,35.3609731 16.8073761,27.0664239 21.8277612,21.8277612 C26.8481463,16.8073761 35.1426955,16.8073761 40.3813582,21.8277612 L117.651633,99.0980358 L111.321582,105.209809 L34.0513075,27.9395343 C32.3050866,26.1933134 29.6857552,26.1933134 27.9395343,27.9395343 C26.1933134,29.6857552 26.1933134,32.3050866 27.9395343,34.0513075 L104.991531,111.321582 L98.8797582,117.433355 Z" id="Path"></path>
                </g>
                <path d="M168.214083,14.0525737 C149.463064,-4.68419125 119.156185,-4.68419125 100.405166,14.0525737 L91.0296562,23.2030869 L81.8721818,14.0525737 C63.1211628,-4.68419125 32.8142832,-4.68419125 14.0632642,14.0525737 C-4.68775475,32.7893387 -4.68775475,63.0731799 14.0632642,81.8099448 L91.0296562,158.935698 L97.1346391,152.835356 L20.1682472,75.7096028 C4.90578985,60.4587475 4.90578985,35.6216404 20.1682472,20.1529158 C35.4307045,4.90206061 60.2867064,4.90206061 75.7671989,20.1529158 L152.951626,97.2786694 L156.004117,94.2284984 L159.056609,91.1783273 L168.214083,82.0278142 C186.747067,63.0731799 186.747067,32.7893387 168.214083,14.0525737 Z M121.772606,54.1405361 L130.93008,44.9900229 C132.674361,43.247068 135.508818,43.247068 137.035063,44.9900229 C137.907204,45.8615004 138.343274,46.9508472 138.343274,48.040194 C138.343274,49.1295408 137.907204,50.2188876 137.035063,51.090365 L128.095624,60.2408782 L121.772606,54.1405361 Z M134.200607,66.3412203 L143.358081,57.1907071 C145.756467,54.7941442 147.282713,51.5261037 147.282713,48.040194 C147.282713,44.5542842 145.974503,41.2862438 143.358081,38.8896808 C140.74166,36.4931179 137.689169,34.9680324 134.200607,34.9680324 C130.712045,34.9680324 127.441519,36.2752485 125.043133,38.8896808 L115.885658,48.040194 L109.780675,41.9398519 L118.93815,32.7893387 C127.441519,24.2924337 141.17773,24.2924337 149.681099,32.7893387 C153.823766,36.9288566 156.004117,42.3755906 156.004117,48.2580633 C156.004117,54.1405361 153.823766,59.5872701 149.681099,63.7267879 L140.523625,72.8773011 L134.200607,66.3412203 Z M161.891065,75.7096028 L152.733591,84.8601159 L146.628608,78.7597738 L155.786082,69.6092607 C161.454995,63.9446573 164.725522,56.1013603 164.725522,48.040194 C164.725522,39.9790276 161.454995,32.3536 155.786082,26.4711273 C143.794152,14.4883125 124.607062,14.4883125 112.615132,26.4711273 L103.457657,35.6216404 L97.3526742,29.5212983 L106.510149,20.3707852 C121.772606,5.11992997 146.628608,5.11992997 162.1091,20.3707852 C177.153523,35.4037711 177.153523,60.4587475 161.891065,75.7096028 Z" id="Shape"></path>
            </g>
        </g>
    </g>
</svg>