<?xml version="1.0" encoding="UTF-8"?>
<svg width="167px" height="160px" viewBox="0 0 167 160" version="1.1" xmlns="http://www.w3.org/2000/svg" xmlns:xlink="http://www.w3.org/1999/xlink">
    <!-- Generator: Sketch 62 (91390) - https://sketch.com -->
    <title>Shape</title>
    <desc>Created with Sketch.</desc>
    <g id="current" stroke="none" stroke-width="1" fill="none" fill-rule="evenodd">
        <g id="LogoText" transform="translate(-1019.000000, -301.000000)" fill="#00969B" fill-rule="nonzero">
            <path d="M1184.74573,338.89516 C1184.15986,337.548 1183.36762,336.494856 1182.06774,335.61613 C1181.84637,335.46663 1181.61835,335.333741 1181.38701,335.209158 C1181.59339,335.06298 1181.74651,334.858664 1181.83306,334.637736 C1182.08272,334.411825 1181.76149,334.019803 1181.64166,333.704192 C1183.34099,333.619476 1183.31769,331.453389 1181.55012,331.453389 C1181.55012,331.453389 1180.85274,331.999894 1180.83776,332.551382 C1180.62472,332.386933 1180.63138,332.259027 1180.33678,332.179294 C1179.63774,331.99325 1179.02525,332.132783 1178.41442,332.471649 C1177.65047,332.895232 1177.71705,333.798876 1178.2613,334.272292 C1176.69512,334.101198 1175.10397,334.340397 1173.626,334.95833 C1172.66898,335.356996 1171.95995,335.993201 1171.13941,336.564623 C1171.05952,336.61944 1170.89475,336.622762 1170.81652,336.614456 C1170.74828,336.609473 1170.69835,336.607812 1170.64343,336.60449 C1169.72635,335.044708 1170.26062,333.340409 1169.61151,331.725811 C1169.56491,331.60455 1169.50998,331.486611 1169.45173,331.371995 C1169.79626,331.166017 1170.0276,330.818845 1170.0276,330.428484 C1170.0276,330.066363 1169.82455,329.740785 1169.5183,329.534807 C1169.28196,329.260724 1168.92079,329.079663 1168.50969,329.079663 C1168.14852,329.079663 1167.81731,329.22418 1167.58096,329.450091 C1166.45917,328.810564 1165.06608,328.579669 1163.70129,328.976675 C1163.63805,328.994947 1163.57147,329.021525 1163.50822,329.04478 C1163.5282,328.968369 1163.54817,328.89528 1163.55982,328.812225 C1163.72626,327.714231 1163.45663,326.745805 1162.96064,325.833855 C1162.99227,325.7209 1163.02222,325.606283 1163.05052,325.494989 C1163.14705,325.531533 1163.24026,325.568078 1163.33513,325.596317 C1164.94958,326.092988 1166.85363,325.764089 1167.8739,324.480051 C1168.01537,324.300651 1168.13853,324.107963 1168.24006,323.906968 C1168.46475,323.995007 1168.71774,324.018263 1168.96407,323.986702 C1168.90082,324.335535 1169.01233,324.709284 1169.31192,324.975062 C1169.70638,325.323895 1170.19238,325.568078 1170.76992,325.426884 C1171.42069,325.267417 1171.72527,324.735862 1171.72694,324.174407 C1171.7286,323.554813 1171.14773,323.04153 1170.45369,323.04153 C1170.42206,323.04153 1170.39377,323.046514 1170.36381,323.048175 C1170.3688,323.043191 1170.37546,323.038208 1170.38378,323.033225 C1170.88643,322.60632 1170.86645,321.860481 1170.38378,321.431915 C1169.88613,320.986738 1169.0839,321.00501 1168.58292,321.431915 C1168.57959,321.433576 1168.57626,321.43856 1168.56961,321.440221 C1168.55463,321.450187 1168.54131,321.460154 1168.52467,321.470121 C1168.34492,320.704349 1167.91384,319.996716 1167.22146,319.496723 C1165.86166,318.516668 1163.75122,318.19109 1162.11014,318.767495 C1161.84717,318.860518 1161.65244,319.005034 1161.5143,319.176128 C1159.55865,317.328975 1156.42129,316.370514 1153.64677,316.260881 C1153.55523,316.255898 1153.45869,316.260881 1153.36049,316.25922 C1152.59987,315.254249 1151.54132,314.302433 1150.39457,313.543306 C1149.9818,312.868895 1149.54407,312.254285 1149.15627,311.739341 C1148.60369,311.006792 1147.79647,310.327398 1146.87273,309.760959 C1147.03085,309.098177 1146.79451,308.470277 1146.33015,307.947028 C1146.32182,307.732745 1146.31017,307.518462 1146.30352,307.30584 C1146.20698,304.418831 1143.89016,302.948749 1141.47515,302.869016 C1140.9259,302.3358 1139.93227,302.372344 1139.41464,302.922171 C1139.31977,303.02516 1139.23655,303.12981 1139.15001,303.236121 C1137.59215,303.805882 1136.32389,305.033442 1136.03761,306.910496 C1135.49336,306.825779 1134.90583,306.804184 1134.31831,306.849034 C1133.83897,306.837407 1133.3047,306.878934 1132.70885,306.978601 C1132.68389,306.981923 1132.65726,306.99189 1132.62896,306.996873 C1130.82977,306.49854 1128.82086,306.550035 1126.76868,306.556679 C1126.47408,304.681286 1125.50874,302.903899 1123.56308,301.927167 C1120.32919,300.305924 1116.93718,300.892296 1114.25752,303.051738 C1113.51354,303.646415 1112.80785,304.270992 1112.11879,304.902214 C1111.00699,303.844087 1109.56397,303.081638 1107.85465,303.065027 C1103.91007,303.02516 1101.10558,306.15303 1101.61488,309.219438 C1100.21348,307.820784 1098.21955,306.867307 1096.19067,306.822457 C1096.54851,306.470301 1096.6051,305.885591 1096.34213,305.485264 C1096.10079,305.073308 1095.59482,304.681286 1095.03559,304.734442 C1094.76928,304.759359 1094.5163,304.79092 1094.29494,304.937097 C1094.28329,304.942081 1094.2733,304.947064 1094.26498,304.950386 C1093.97371,305.008525 1093.72239,305.15138 1093.53598,305.34573 C1093.09492,305.591575 1092.91017,306.144724 1093.04166,306.57329 C1093.14485,306.907173 1093.42946,307.181256 1093.78231,307.317467 C1092.66884,307.932078 1091.77506,308.995188 1090.38198,308.840705 C1090.11235,308.810805 1089.84605,308.765955 1089.58307,308.712799 C1089.66962,308.563299 1089.72122,308.395527 1089.72122,308.216128 C1089.72122,307.596534 1089.14035,307.083251 1088.4463,307.083251 C1087.88374,307.083251 1087.34115,307.133084 1086.90675,307.488562 C1086.75529,307.609823 1086.64378,307.772611 1086.57054,307.952011 C1086.26263,307.880583 1085.95805,307.819122 1085.63849,307.772611 C1085.66346,307.756 1085.68343,307.739389 1085.70839,307.724439 C1086.20937,307.314145 1086.19606,306.533424 1085.70839,306.121468 C1084.94944,305.481941 1083.81266,305.274303 1082.8623,305.696224 C1082.36965,305.917152 1081.96021,306.43874 1081.99682,306.943718 C1082.02013,307.297534 1082.15328,307.623111 1082.39461,307.89055 C1079.59845,308.448683 1077.01866,310.114776 1075.77037,312.405446 C1075.59728,312.260929 1075.38424,312.152957 1075.13957,312.093157 C1075.12459,312.086513 1075.11294,312.08153 1075.09796,312.074885 C1074.97314,312.02173 1074.84831,311.971896 1074.71682,311.927046 C1074.35232,311.716085 1073.93123,311.61808 1073.48019,311.780869 C1072.90265,311.986846 1072.57476,312.342324 1072.30513,312.822384 C1071.99389,313.375534 1072.13204,314.044961 1072.76117,314.373861 C1073.01582,314.506749 1073.33372,314.546616 1073.62832,314.501766 C1073.64496,315.058238 1074.05273,315.604743 1074.85663,315.604743 C1074.87993,315.604743 1074.89824,315.601421 1074.91821,315.601421 C1074.86162,316.328987 1074.83499,317.056553 1074.72181,317.774152 C1074.52708,318.010029 1074.35399,318.257535 1074.23748,318.54989 C1074.11931,318.843906 1074.09268,319.144567 1074.12597,319.438584 C1074.05107,319.468484 1073.27047,319.815656 1072.91929,319.916983 C1072.06879,320.162827 1071.0635,320.548205 1070.16973,320.564816 C1069.5639,319.531606 1069.17943,318.216007 1068.63684,317.073164 C1068.54863,316.870508 1068.44876,316.48347 1068.34557,316.48347 L1068.55528,316.48347 C1069.66542,316.48347 1070.2413,315.239299 1069.45571,314.541633 C1069.13449,314.255922 1068.80993,314.008417 1068.37886,313.867222 C1068.05597,313.760911 1067.68148,313.770878 1067.34195,313.770878 C1067.10394,313.770878 1066.88092,313.832339 1066.68951,313.936989 C1065.7508,312.80079 1064.59073,311.834024 1063.20763,311.30413 C1063.27087,311.265925 1063.33079,311.221075 1063.39071,311.16958 C1063.46394,311.103136 1063.52552,311.026725 1063.57712,310.945331 C1063.6853,310.893836 1063.79016,310.829053 1063.87671,310.737692 C1064.0781,310.521748 1064.27283,310.294176 1064.32443,310.003481 C1064.33774,309.902154 1064.34939,309.824082 1064.35771,309.744348 C1064.56576,309.32741 1064.52582,308.852333 1064.11804,308.490211 C1063.73357,308.149683 1063.04452,308.031744 1062.5735,308.312472 C1062.36378,308.440377 1062.16239,308.576588 1061.96433,308.716122 C1061.95102,308.721105 1061.93937,308.72941 1061.92938,308.737716 C1061.89609,308.757649 1061.86281,308.772599 1061.82785,308.790872 C1061.76794,308.810805 1061.70136,308.83406 1061.66308,308.845688 C1061.16377,308.995188 1060.67277,309.422093 1060.72936,309.938698 C1060.76431,310.269259 1060.85586,310.64467 1061.15378,310.878886 C1060.80759,310.865597 1060.45308,310.875564 1060.08858,310.917092 C1057.92655,311.159614 1055.74288,312.113091 1054.76921,313.932006 C1053.98862,315.393782 1054.11012,316.935292 1054.27822,318.498396 C1054.36976,319.347223 1054.82747,320.872121 1053.40276,320.739232 C1051.97805,320.606344 1050.80466,318.90869 1049.64958,318.252551 C1042.42616,314.14795 1034.60191,324.438523 1039.5135,329.606235 C1039.37369,329.865368 1039.23388,330.124501 1039.09241,330.385296 C1039.04581,330.383634 1038.38172,330.375329 1038.33345,330.37699 C1038.10709,330.385296 1037.04688,330.418518 1037.04688,330.453401 L1037.04688,330.430146 C1037.04688,330.21254 1037.61943,330.008224 1037.55119,329.818857 C1037.75924,329.400258 1037.98227,328.885314 1037.60612,328.551431 C1037.15507,328.149442 1036.5975,328.126187 1036.10152,328.448442 C1035.67543,328.455086 1035.34589,328.632825 1035.10954,328.994947 C1034.82494,329.428496 1034.95143,330.039785 1035.36253,330.385296 C1035.39748,330.465029 1035.46073,330.54144 1035.52231,330.619512 C1035.68875,330.832134 1035.88015,331.026484 1036.08487,331.210867 C1036.07988,331.217511 1036.0882,331.219173 1036.08154,331.222495 C1036.06157,331.257378 1036.05158,331.2906 1036.03328,331.323822 C1035.88681,331.269006 1035.72869,331.237445 1035.56059,331.237445 C1035.45407,331.237445 1035.34922,331.244089 1035.25102,331.254056 C1035.19276,331.24575 1035.13285,331.237445 1035.07626,331.237445 C1034.79664,331.237445 1034.53533,331.323822 1034.32229,331.465017 C1034.4155,331.237445 1034.42216,330.986617 1034.34726,330.754062 C1034.38221,330.651073 1034.40884,330.777317 1034.40884,330.664362 C1034.40718,330.049751 1033.82631,329.772346 1033.1306,329.772346 L1032.6446,329.772346 C1031.95221,329.772346 1032.05374,329.812213 1032.05374,330.430146 L1032.05374,330.599579 C1032.05374,330.946751 1031.85568,331.239106 1032.13197,331.488272 C1032.27843,331.616178 1032.25513,331.747405 1032.40326,331.878633 C1032.84599,332.273977 1033.47179,332.307199 1033.96445,331.986605 C1033.91452,332.107866 1033.83962,332.235772 1033.84129,332.370321 C1033.84129,332.45836 1033.82964,332.541416 1033.83962,332.621149 C1033.84295,332.639421 1033.74975,332.657693 1033.74975,332.674305 C1033.76306,332.752377 1033.71812,332.828788 1033.71812,332.901877 C1033.71812,332.988254 1033.86792,333.067987 1033.91285,333.147721 C1034.00772,333.322137 1034.2191,333.466654 1034.37222,333.604526 C1034.86155,334.039737 1035.70706,334.039737 1036.19472,333.604526 C1036.36449,333.455026 1036.47933,333.267321 1036.53259,333.074632 C1036.56921,333.033104 1036.60915,332.988254 1036.64244,332.940082 C1036.82885,333.016493 1037.03523,333.064665 1037.24827,333.074632 C1037.32151,333.076293 1037.38808,333.07131 1037.45632,333.061343 C1036.77226,334.006514 1035.97169,334.866969 1034.9481,335.55633 C1033.91951,336.250673 1032.85764,337.006478 1031.97052,337.878561 C1031.95388,337.847 1031.94223,337.815439 1031.92225,337.7872 C1031.65928,337.425078 1031.22155,337.175911 1030.72057,337.194184 C1030.43929,337.20415 1030.15635,337.260628 1029.88339,337.318767 C1029.22263,337.463283 1028.82983,338.106133 1028.98462,338.679216 C1028.91971,339.011437 1028.94967,339.350304 1029.11944,339.652626 C1029.08282,339.652626 1029.0462,339.645981 1029.00959,339.652626 C1028.71166,339.685848 1028.41707,339.710765 1028.16908,339.875214 C1028.14245,339.888503 1028.12414,339.908437 1028.09584,339.925048 C1027.58321,340.071225 1027.20041,340.49813 1027.20041,341.001447 C1027.20041,341.478185 1027.54993,341.893462 1028.03093,342.056251 C1028.11249,342.235651 1028.19404,342.411729 1028.26395,342.596112 C1028.32386,342.743951 1028.40542,342.876839 1028.51194,342.993117 C1028.42705,343.235639 1028.46034,343.496433 1028.57019,343.732311 C1028.38378,343.822011 1027.73134,343.921677 1027.58821,344.039616 C1027.20373,344.351905 1026.7893,344.753893 1026.64783,345.182459 C1026.55795,344.926648 1026.41648,344.722332 1026.09692,344.722332 L1025.85226,344.722332 C1025.15987,344.722332 1024.57901,344.936615 1024.57901,345.554548 C1024.58067,346.17082 1025.15987,346.383442 1025.85226,346.383442 L1026.09526,346.383442 C1026.5979,346.383442 1027.02897,346.682441 1027.23536,346.303708 C1027.23702,346.386764 1027.23536,346.752208 1027.24368,346.836924 C1027.29028,347.280441 1027.58821,347.866812 1028.04591,348.044551 C1028.0792,348.40169 1028.19071,348.82195 1028.3921,349.152511 C1028.47699,349.4648 1028.61347,349.792038 1028.80653,350.057816 C1028.19238,350.235555 1027.38682,350.454821 1026.78098,350.58771 C1023.88829,351.228898 1020.28157,352.109286 1019.30625,354.987989 C1018.43577,357.554403 1019.71236,359.841751 1021.2336,361.889899 C1022.1773,363.165631 1022.06745,364.240369 1022.06745,365.755301 L1022.06745,365.758623 C1022.06745,365.964601 1021.43998,366.227056 1020.96563,366.572567 C1018.74535,368.195471 1018.6122,371.544268 1020.15841,373.64391 C1020.63276,374.291743 1021.34345,374.899709 1022.04415,375.401364 C1021.87272,375.436247 1021.74956,375.464486 1021.58312,375.501031 C1020.91071,375.645547 1020.54621,376.309991 1020.72097,376.889718 C1020.64441,376.893041 1020.5795,376.901346 1020.50294,376.914635 C1020.09183,376.989385 1019.81055,377.255162 1019.62914,377.570773 C1019.25132,377.763462 1019,378.110634 1019,378.532556 C1019,379.130555 1019.58087,379.69201 1020.27492,379.665432 C1020.458,379.658788 1020.64108,379.633871 1020.81251,379.58736 C1021.27854,379.723571 1021.77619,379.66211 1022.14568,379.33321 C1022.43362,379.079061 1022.59673,378.655478 1022.49354,378.295017 C1022.51684,378.162128 1022.51351,378.029239 1022.49021,377.896351 C1022.5185,377.937878 1022.5418,377.984389 1022.57343,378.027578 C1023.03113,378.663783 1023.94654,378.756805 1024.57235,378.256811 C1024.36264,378.424584 1024.59565,378.245184 1024.63892,378.218606 C1024.75044,378.142195 1024.86528,378.064123 1024.97846,377.986051 C1025.08831,377.896351 1025.18983,378.414617 1025.27971,378.306645 C1025.73908,378.090701 1026.20677,377.944523 1026.32661,377.944523 L1026.38819,377.944523 C1027.66976,377.944523 1028.67005,376.755168 1029.39739,376.052519 C1029.66535,376.145541 1029.93498,375.922953 1030.21127,376.006008 C1031.86733,376.506002 1033.55501,376.708657 1035.01301,377.597351 C1035.46406,377.869773 1035.8968,378.070767 1036.27794,378.4196 C1036.21636,378.476078 1036.16143,378.487706 1036.12315,378.514283 C1036.10817,378.52425 1036.09985,378.510961 1036.0882,378.515945 C1036.0649,378.532556 1036.03328,378.540861 1035.99666,378.564117 C1035.81025,378.678733 1035.61885,378.786705 1035.42911,378.898 C1035.02799,379.127233 1034.62188,379.349822 1034.21577,379.577394 C1032.22351,380.691998 1030.32445,381.891319 1029.38074,383.859734 C1029.04121,383.560734 1028.62012,383.346451 1028.13579,383.268379 C1027.45339,383.157085 1026.766,383.429507 1026.56961,384.059067 C1026.49138,384.314878 1026.53299,384.60225 1026.66115,384.854739 C1026.58625,384.919522 1026.51468,384.994272 1026.45809,385.085633 C1026.12854,385.582305 1026.28666,386.368009 1026.91247,386.632126 C1027.4717,386.872987 1028.14744,387.05737 1028.75993,386.846409 C1028.87311,386.808203 1028.98629,386.755048 1029.09447,386.700231 C1029.50058,388.490907 1030.84706,390.208495 1032.29175,391.308149 C1032.36498,391.366288 1032.44321,391.419443 1032.51977,391.472599 C1032.31006,391.886215 1032.17025,392.323087 1032.09202,392.769926 C1031.92558,392.723414 1031.75082,392.693514 1031.57107,392.703481 C1030.9436,392.730059 1030.33943,392.959292 1029.87007,393.324736 C1029.50224,393.607125 1029.20432,394.122069 1029.25758,394.568907 C1029.29253,394.849635 1029.32915,395.088834 1029.50557,395.341323 C1029.68366,395.593812 1029.84344,395.716734 1030.10642,395.889489 C1030.48922,396.140317 1031.09173,396.213406 1031.54278,396.088822 C1031.6959,396.047295 1031.84236,395.985834 1031.98217,395.914406 C1032.1353,395.886167 1032.28343,395.842978 1032.42157,395.776534 C1032.61464,396.268222 1032.86429,396.731672 1033.17221,397.153594 C1033.31035,397.344621 1033.4668,397.524021 1033.62658,397.695115 C1033.42353,398.028998 1033.29537,398.422681 1033.27873,398.88447 C1033.26375,399.229981 1033.29204,399.562202 1033.34364,399.882797 C1032.97248,401.038929 1032.91755,402.288083 1033.15223,403.362821 C1033.16388,403.414315 1033.18386,403.464149 1033.19717,403.520626 C1032.79439,403.565476 1032.48981,403.759826 1032.23682,404.057165 C1032.16359,404.123609 1032.09369,404.196698 1032.03543,404.284737 C1031.70422,404.786392 1031.86899,405.565452 1032.49147,405.836213 C1032.60465,405.884385 1032.71783,405.924252 1032.82934,405.954152 C1033.05237,406.105313 1033.33032,406.199996 1033.61659,406.199996 C1034.01605,406.199996 1034.42881,406.000663 1034.67514,405.706647 C1036.31123,407.005634 1038.88935,407.415928 1040.95485,406.734873 C1042.49607,406.223252 1043.77764,405.294691 1044.72467,404.145204 C1044.69971,404.299687 1044.70803,404.464137 1044.77294,404.638553 C1045.29389,406.07043 1046.48725,407.234867 1048.24817,407.379384 C1048.72418,407.417589 1049.17356,407.369417 1049.59632,407.263106 C1049.63293,407.299651 1049.66289,407.339517 1049.70117,407.376062 C1049.71449,407.391012 1049.73113,407.404301 1049.75111,407.414267 C1049.26677,407.595328 1048.89062,408.040506 1048.92391,408.518905 C1048.96385,409.121888 1049.35665,409.638493 1049.95749,409.924204 C1050.7464,410.302937 1051.64684,409.90427 1051.83657,409.176704 C1051.85488,409.085343 1051.88651,408.997305 1051.92479,408.907605 C1051.92812,408.897638 1051.93644,408.884349 1051.94309,408.872721 C1052.12784,408.537177 1052.16446,408.171733 1051.99136,407.832867 C1053.14145,408.4508 1054.36477,408.94581 1055.6763,409.186671 C1058.67052,409.743143 1062.04589,408.598638 1064.66895,410.153437 C1067.064,411.572024 1070.30954,411.384319 1073.07574,411.723185 C1076.26137,412.111885 1079.44366,412.412546 1082.66591,412.432479 C1082.7458,412.432479 1082.81736,412.422513 1082.88893,412.412546 C1083.1053,412.505568 1083.32833,412.593607 1083.54803,412.681646 C1087.43769,414.261361 1090.09071,415.553704 1093.58757,417.80783 C1094.14015,418.164968 1095.28524,419.3211 1095.89441,419.729733 C1095.90439,420.085211 1095.91438,420.442349 1095.92437,420.797827 C1095.91271,424.585157 1096.27721,432.418949 1096.25558,437.013578 C1096.24226,439.232821 1096.12076,441.385619 1095.88109,443.540078 C1095.83782,443.761005 1095.79288,443.980272 1095.74628,444.196216 C1095.4883,445.357331 1095.15209,446.554991 1094.70271,447.722751 C1094.59286,447.714446 1094.47303,447.729396 1094.34986,447.774246 C1090.87297,449.028384 1087.20634,449.358944 1083.67119,450.372221 C1082.24981,450.780854 1080.49222,451.171215 1079.32549,452.144625 C1077.79593,453.422018 1076.65583,455.016683 1074.79338,455.870494 C1074.76176,455.885444 1074.74678,455.907038 1074.71849,455.92531 C1073.67825,456.018332 1072.63967,456.11966 1071.59944,456.242582 C1071.36642,456.270821 1071.21663,456.375471 1071.1151,456.511682 C1070.36946,456.561515 1069.62215,456.609687 1068.86985,456.634604 C1068.26568,456.654537 1068.01602,457.194398 1068.09924,457.652864 C1063.01789,457.858842 1057.93986,458.885408 1052.89845,459.556496 C1052.52729,459.612974 1052.32757,459.33889 1052.27098,461 L1142.51705,461 C1142.45713,459.33889 1142.22578,459.551512 1141.74478,459.451846 C1139.09508,458.902019 1136.47035,457.491737 1133.7391,457.310676 C1132.74048,457.240909 1131.75516,456.966826 1130.77151,456.895398 C1130.64169,456.754204 1130.4636,456.534938 1130.23725,456.46351 C1128.24831,455.828966 1126.17782,455.476811 1124.16558,454.941933 C1123.67126,454.810706 1123.26848,454.6828 1122.86071,454.583134 C1120.99327,452.988469 1119.27397,451.176198 1117.25341,449.772561 C1115.28944,448.407129 1112.94932,447.853979 1110.61752,447.520096 C1110.56593,447.511791 1110.52432,447.523418 1110.47771,447.525079 C1110.07993,445.990214 1109.99005,444.48691 1109.87188,442.90055 C1109.58061,439.013554 1108.90487,435.161441 1108.51042,431.28275 C1108.41887,427.923987 1108.25909,424.566884 1108.31402,421.208121 C1108.35063,418.595196 1108.58032,416.033765 1108.91819,413.43745 C1109.06632,412.332813 1109.16452,411.208241 1109.30932,410.091976 C1109.68713,409.91922 1110.06495,409.748126 1110.45275,409.590321 C1111.73765,409.067071 1113.40037,408.93086 1114.79678,408.822888 C1114.9083,408.814583 1115.2728,408.814583 1115.2728,408.806277 C1115.2728,409.357765 1114.97321,410.033837 1115.59569,410.359414 C1116.04507,410.593631 1116.97879,410.54712 1117.37491,410.254765 C1117.82928,410.146792 1118.5483,409.821215 1118.58824,409.417565 C1118.54996,409.39431 1118.22374,409.372715 1118.23373,409.352782 C1118.24871,409.326204 1118.06729,409.301288 1118.08061,409.27471 C1118.10058,409.233182 1118.08227,409.193316 1118.07062,409.15511 C1118.22041,409.276371 1118.40017,409.351121 1118.59324,409.399293 C1118.59324,409.39431 1118.59989,409.389327 1118.59989,409.384343 L1118.59989,409.400954 C1118.74469,409.435838 1118.89449,409.464076 1119.04928,409.460754 C1119.09089,409.508926 1119.11585,409.55876 1119.16412,409.60361 C1119.21239,409.829521 1119.22737,410.055431 1119.16578,410.30792 C1118.94775,411.231497 1120.05789,412.219857 1121.07483,411.616874 C1121.73892,411.22153 1122.37471,410.822864 1122.92229,410.359414 C1123.23852,410.271376 1123.5481,410.161742 1123.83604,410.013904 C1123.8144,410.085331 1123.80608,410.163404 1123.80608,410.244798 C1123.80774,410.618548 1123.90927,410.965719 1124.21385,411.239803 C1124.5151,411.50558 1124.91123,411.591958 1125.32233,411.593619 C1126.01638,411.593619 1126.59724,411.077014 1126.59724,410.459081 C1126.59724,410.096959 1126.39419,409.774704 1126.08628,409.568726 C1125.8516,409.292982 1125.48877,409.11026 1125.07933,409.11026 C1125.04937,409.11026 1125.01941,409.120227 1124.98945,409.123549 C1125.20249,408.882688 1125.43384,408.580366 1125.64688,408.258111 C1126.00472,408.218244 1126.3609,408.175055 1126.71708,408.133528 C1126.77533,408.28635 1126.83858,408.437511 1126.93511,408.580366 C1127.62084,409.650121 1129.05886,410.507253 1130.46194,410.527187 C1131.29579,410.540475 1132.03811,410.226526 1132.51245,409.616899 C1132.52078,409.601949 1132.52244,409.58866 1132.53243,409.580354 C1133.77572,409.713243 1135.07727,409.492315 1136.25731,408.954116 C1137.07952,408.577044 1137.78189,408.01725 1138.31782,407.361112 C1138.53252,407.400978 1138.74889,407.437523 1138.96859,407.464101 C1139.67762,409.910915 1142.13258,411.957402 1144.87215,412.342779 C1144.739,412.545435 1144.67242,412.782973 1144.67242,413.052073 C1144.67076,413.670006 1145.25329,414.186611 1145.94734,414.186611 C1146.2436,414.186611 1146.51323,414.088605 1146.7296,413.935783 C1147.28217,413.812861 1147.70659,413.362701 1147.70659,412.839451 C1147.70659,412.596929 1147.61172,412.369357 1147.46359,412.184974 C1147.52517,412.166702 1147.58842,412.146768 1147.64834,412.128496 C1148.08607,412.595268 1148.76847,412.836129 1149.46418,412.874334 C1149.73713,412.91254 1150.01509,412.89759 1150.27639,412.827823 C1150.49942,412.791279 1150.71746,412.729818 1150.91219,412.655068 C1151.55131,412.400918 1152.04563,411.719863 1151.98238,411.088642 C1151.90582,410.342803 1151.48474,409.748126 1150.93382,409.213249 C1151.17516,408.626877 1151.32329,408.003961 1151.40984,407.381045 C1151.48806,407.331212 1151.5613,407.284701 1151.63786,407.233206 C1152.33856,407.842834 1153.5752,408.145155 1154.52223,407.799645 C1155.38937,407.817917 1156.28315,407.65845 1156.9439,407.229884 C1157.94087,406.585374 1158.48179,405.81628 1158.57333,404.704998 C1158.62327,404.083743 1158.33699,403.216643 1157.93588,402.711666 C1157.41825,402.05885 1156.67428,401.487428 1155.80048,401.231618 C1155.72891,401.198395 1155.64902,401.17514 1155.56913,401.146901 C1155.44763,401.048895 1155.31614,400.960857 1155.17633,400.881123 C1155.15137,400.492424 1155.07647,400.118674 1154.98659,399.75323 C1155.08646,399.779808 1155.17966,399.788113 1155.28285,399.821336 C1155.99188,400.043924 1156.67927,400.286446 1157.4116,400.48744 C1158.68318,400.826307 1160.20443,400.967501 1161.57921,400.744912 C1163.07049,400.510696 1164.53015,399.861202 1165.2991,399.037292 C1165.79175,399.389447 1166.53074,399.371175 1166.98345,398.969186 C1167.02506,398.932642 1167.06001,398.891114 1167.09164,398.851248 C1167.39788,398.636964 1167.60094,398.304743 1167.60094,397.952587 C1167.60094,397.540632 1167.35128,397.196782 1166.98345,397.002433 C1167.52105,396.497455 1167.88222,395.847962 1167.9954,395.095479 C1168.07529,394.952623 1168.14852,394.803124 1168.19512,394.641996 C1168.49471,393.653636 1168.01703,392.399498 1166.94184,391.921099 C1166.70217,391.81811 1166.47914,391.730071 1166.25112,391.648677 C1166.87693,391.027422 1167.11993,390.334739 1166.55737,389.575612 C1166.08801,388.942729 1165.2525,388.484263 1164.24721,388.145397 C1164.12072,387.735103 1164.00255,387.328131 1163.91267,386.934448 C1163.79117,386.416182 1163.68132,385.907882 1163.82779,385.583966 C1163.85941,385.51586 1163.98257,385.29161 1164.04915,385.167027 C1164.17398,385.188622 1164.31212,385.215199 1164.39534,385.258388 C1165.01615,385.559049 1165.60701,385.897915 1166.19287,386.251732 C1167.36792,386.957703 1168.54631,387.605536 1169.76796,388.052374 C1169.495,388.235096 1169.26698,388.482602 1169.1072,388.755024 C1168.78431,389.30319 1168.94409,389.982584 1169.56491,390.3065 C1170.14245,390.607161 1170.98629,390.446033 1171.30751,389.901189 C1171.31417,389.886239 1171.32582,389.874612 1171.33414,389.862984 C1171.71029,389.666973 1171.96827,389.314818 1171.96827,388.897879 C1171.96827,388.793229 1171.94331,388.690241 1171.91002,388.587252 C1173.06011,388.730107 1174.26179,388.640407 1175.54669,388.196891 C1177.61053,387.482614 1179.62942,386.56402 1181.08575,385.037461 C1182.27745,383.784984 1183.19286,381.726869 1182.45221,380.092338 C1182.0694,379.251816 1181.63167,378.527572 1180.91099,377.871434 C1180.77118,377.743529 1180.50821,377.512634 1180.28519,377.313301 C1180.30682,377.145529 1180.32014,376.976096 1180.33512,376.806663 C1180.3451,376.800018 1180.35343,376.793374 1180.36674,376.78673 C1180.68131,376.575769 1181.02251,376.379758 1181.31044,376.140558 C1184.46778,373.529294 1181.74485,369.952925 1181.13735,366.806783 C1181.59172,365.949651 1181.53181,364.906474 1180.63138,364.187214 C1180.62805,363.489548 1180.60641,362.788559 1180.55648,362.090893 C1180.54649,361.949699 1180.53151,361.810166 1180.5182,361.672294 C1180.96925,361.340072 1181.41197,360.999544 1181.82807,360.642406 C1183.40257,359.28694 1183.69883,357.431481 1182.43889,355.791966 C1181.66995,354.788656 1180.71959,353.876707 1180.05217,352.813597 C1179.86743,352.571075 1179.72928,352.308619 1179.63608,352.026231 C1179.63441,351.966431 1179.62775,351.914936 1179.62443,351.868425 C1179.94565,351.577731 1180.27021,351.297004 1180.57645,350.993021 C1181.57342,350.011305 1181.9762,348.752184 1181.87633,347.441568 C1181.82307,346.750547 1181.50018,346.15587 1181.47522,345.60272 C1181.635,345.629298 1181.79478,345.644248 1181.95622,345.642587 C1183.55403,345.634281 1184.5227,344.513032 1184.66251,343.197433 C1184.82728,341.69579 1185.40482,340.406769 1184.74573,338.89516 Z M1065.91908,407.773273 C1063.46611,406.284352 1060.94953,407.219256 1058.27148,406.994186 C1057.2244,406.90589 1056.24745,406.651388 1055.32432,406.277427 C1055.33574,406.251457 1055.35205,406.232413 1055.35857,406.206443 C1055.39772,406.178742 1055.44338,406.151041 1055.47927,406.114684 C1055.70434,405.898271 1055.82666,405.605681 1055.83808,405.309628 C1055.93757,405.053395 1056.00118,404.783312 1056.04521,404.51496 C1056.12839,404.480333 1056.21483,404.44917 1056.29801,404.411081 C1057.14285,404.045776 1058.0986,403.460596 1059.06902,403.039889 C1058.89451,402.833864 1058.72489,402.626107 1058.56832,402.406232 C1057.9567,401.55443 1058.03662,400.339055 1058.82601,399.594595 C1058.99237,399.691548 1059.14731,399.795426 1059.31693,399.883722 C1060.59234,400.564125 1061.91995,400.970981 1063.2655,401.237602 C1063.66998,401.69986 1064.21146,402.063434 1064.82144,402.291966 C1064.96496,402.399306 1065.12154,402.496259 1065.27811,402.588019 C1065.87504,402.605332 1066.46871,402.672852 1067.04934,402.797506 C1068.47969,403.095291 1069.6703,403.9973 1070.86743,404.84737 C1070.2868,405.441207 1069.93452,406.275695 1070.01606,407.191555 C1070.08783,407.993149 1070.41402,408.632 1070.89189,409.108108 C1069.14023,408.93844 1067.4212,408.692595 1065.91908,407.773273 Z M1090.94419,453.163108 C1086.79768,454.140437 1082.65775,455.079076 1078.47333,455.763711 C1078.25249,455.777168 1078.03165,455.799036 1077.81081,455.810811 C1079.36823,454.513874 1080.77567,453.060497 1082.85552,452.328762 C1086.2703,451.124344 1089.91581,450.818193 1093.37838,449.756757 C1092.73399,451.003229 1091.94292,452.17064 1090.94419,453.163108 Z M1116.74387,452.010456 C1117.6461,452.646479 1118.48942,453.358256 1119.32432,454.081081 C1117.50471,453.463997 1115.55043,453.170448 1113.7729,452.455514 C1112.86056,452.087789 1112.04081,451.589071 1111.21769,451.096666 C1111.03421,450.651608 1110.85074,450.204971 1110.67568,449.756757 C1112.89759,450.110278 1114.899,450.708424 1116.74387,452.010456 Z M1097.30131,376.13635 C1097.44088,375.859083 1097.60613,375.608067 1097.79383,375.378378 C1097.98634,375.631036 1098.20933,375.864005 1098.43874,376.052678 C1098.98259,376.510414 1099.65479,376.830337 1100.35104,376.973072 C1100.38313,377.092838 1100.43125,377.212604 1100.51949,377.33237 C1101.42109,378.572687 1102.889,379.122298 1104.30237,378.160888 C1104.44515,378.064091 1104.54141,377.950888 1104.62162,377.831122 C1103.65264,379.524253 1102.64195,381.199337 1101.72109,382.861296 C1101.09863,383.988409 1100.13607,385.287789 1099.60666,386.621622 C1098.71949,385.087632 1098.12912,383.428954 1097.2596,381.873636 C1096.82484,381.095977 1096.38688,380.326521 1095.97297,379.547221 C1096.44463,378.538233 1096.76709,377.168307 1097.30131,376.13635 Z M1075.21622,409.485348 C1076.14945,408.963785 1076.62325,408.029617 1076.76522,406.954341 C1076.81308,406.581031 1076.8418,406.204148 1076.86573,405.829052 C1077.08109,405.843341 1077.29964,405.839769 1077.52936,405.814763 C1077.79577,405.784398 1078.06697,405.730813 1078.33178,405.648649 C1079.06241,406.484578 1079.73881,407.35623 1080.29396,408.342197 C1080.60504,408.897697 1080.91772,409.451411 1081.27027,409.972973 C1079.24109,409.906885 1077.22945,409.728267 1075.21622,409.485348 Z M1095.90857,413.199024 C1095.91196,413.565675 1095.91365,413.932327 1095.91704,414.297297 C1095.87975,414.275433 1095.84416,414.251886 1095.80518,414.230022 C1092.65946,412.453947 1088.97986,411.629821 1085.55957,410.348221 C1084.95788,410.045481 1084.41721,409.700694 1084.04603,409.291995 C1083.09011,408.225677 1082.45792,406.974351 1081.60369,405.845803 C1081.24777,405.376556 1080.83591,404.930856 1080.40541,404.496928 C1080.58337,404.291738 1080.7732,404.074774 1080.95794,403.8309 C1081.41217,404.091593 1081.91555,404.286692 1082.46978,404.397697 C1083.24604,404.549067 1084.10366,404.461609 1084.89009,404.197552 C1084.87483,404.273237 1084.86466,404.345558 1084.86466,404.419561 C1084.86466,404.589432 1084.90534,406.173772 1084.96975,406.32346 C1084.80026,406.262912 1084.61551,407.650471 1084.40196,407.650471 L1085.23923,407.650471 C1083.70027,407.650471 1083.57485,408.60242 1084.82907,408.859749 C1085.68668,408.639422 1085.98159,407.976757 1085.71211,407.305683 C1085.90193,407.384732 1086.10532,407.650471 1086.32057,407.650471 L1086.73752,407.650471 C1087.53242,407.650471 1088.19343,406.096405 1088.19343,405.374874 C1088.19343,404.663435 1087.5392,403.588708 1086.75277,403.580299 C1087.59005,402.7629 1087.95275,401.425798 1087.30361,400.248476 C1087.22395,400.112243 1086.97819,399.690089 1086.69514,399.336892 C1086.71718,399.128337 1086.76463,398.874372 1086.86124,398.72973 C1087.15276,399.029106 1087.47649,399.261207 1087.82564,399.471443 C1088.95274,400.137471 1090.01035,400.162699 1090.90017,399.807821 C1092.85946,400.823682 1094.74757,401.933729 1095.93908,402.820085 C1095.94924,402.83354 1095.95941,402.843631 1095.97297,402.86045 C1095.39841,406.301595 1095.41874,409.749469 1095.90857,413.199024 Z M1099.69453,400.459459 C1098.06235,400.283526 1096.36369,399.439047 1094.52542,398.482306 C1094.99911,398.261133 1095.37641,397.879107 1095.48278,397.336228 C1095.48943,397.29769 1095.49109,397.262503 1095.49608,397.223966 C1095.55758,397.031277 1095.60412,396.835237 1095.61409,396.61574 C1095.63403,396.270576 1095.4645,395.945518 1095.20687,395.705914 C1095.20521,395.702563 1095.20189,395.700888 1095.20023,395.697536 C1095.29497,395.690834 1095.38638,395.672403 1095.47115,395.64727 C1096.02296,395.456257 1096.37699,395.126173 1096.64293,394.64864 C1097.00028,394.01193 1096.82908,393.226095 1096.13266,392.849095 C1095.64234,392.586034 1094.97751,392.627922 1094.52708,392.939575 C1093.97692,393.125562 1093.55143,393.609797 1093.57137,394.174458 C1093.57636,394.325258 1093.60295,394.460978 1093.63619,394.591671 C1093.2938,394.54308 1092.93811,394.589996 1092.6057,394.698907 C1092.31317,394.243156 1091.94751,393.825943 1091.5486,393.480779 C1092.3863,392.996544 1093.00294,392.254274 1093.29713,391.455035 C1093.80074,391.619239 1094.39079,391.522057 1094.78636,391.156786 C1095.33818,390.649094 1095.33818,389.801264 1094.78636,389.296922 C1094.75645,389.268438 1094.72819,389.236602 1094.69827,389.204767 C1094.63345,389.03386 1094.53373,388.874683 1094.37749,388.733936 C1094.11322,388.48763 1093.74589,388.348559 1093.37192,388.348559 C1093.09768,388.348559 1092.81678,388.434012 1092.57578,388.57811 C1092.24003,388.298292 1091.80457,388.06539 1091.25109,387.89951 C1091.04831,387.83919 1090.84554,387.793951 1090.64941,387.752062 C1090.18236,387.17232 1089.43276,386.796996 1088.59672,386.745054 C1087.52467,386.681383 1086.42603,386.939418 1085.47697,387.427004 C1085.60994,385.925708 1084.71074,384.318853 1083.36611,383.430809 C1082.15444,382.629895 1080.59207,382.304837 1079.11114,382.579628 C1078.98649,382.603086 1078.83524,382.638272 1078.67568,382.678486 C1080.01865,381.823953 1080.82144,380.376275 1080.1699,378.856548 C1079.99704,378.45274 1079.75271,378.079091 1079.45852,377.742305 C1079.89233,378.067362 1080.34442,378.451064 1080.64692,378.548246 C1082.78105,379.22517 1085.2476,378.781148 1086.73185,377.165915 C1087.41165,376.42532 1087.62772,375.44177 1087.90695,374.513514 C1087.92191,374.526918 1087.93853,374.535296 1087.95183,374.547025 C1088.13798,374.692798 1088.31915,374.855326 1088.49367,375.021206 C1088.33245,375.771854 1088.15128,376.537582 1088.17787,377.274826 C1088.2294,378.824713 1089.85659,380.191964 1091.44389,380.533777 C1091.87105,380.625933 1092.29655,380.620906 1092.70708,380.548857 C1093.85559,383.107427 1095.38306,386.934392 1096.22906,388.298292 C1097.50223,390.347494 1098.89506,392.400047 1100.12834,394.471031 C1100.78985,395.576897 1101.2087,397.128459 1101.14554,398.435391 C1101.14055,398.571111 1101.14554,398.700128 1101.16216,398.820768 C1100.60536,399.318408 1100.12169,399.87134 1099.69453,400.459459 Z M1105.51221,395.27027 C1105.18123,394.737364 1103.97959,393.427844 1103.62904,392.919309 C1102.77468,391.684526 1102.00022,390.418874 1101.16216,389.177592 C1101.3676,388.940384 1101.47032,388.623565 1101.38227,388.256379 C1101.16053,387.320544 1102.37196,385.838805 1102.84316,385.057317 C1103.43827,384.061368 1103.91763,383.028049 1104.48503,382.020727 C1105.15351,380.831436 1105.88395,379.673015 1106.59972,378.50647 C1106.61114,378.524342 1106.61929,378.542214 1106.6307,378.558461 C1108.1242,380.590978 1110.93347,380.727454 1113.05469,379.309079 C1114.1797,378.555211 1115.13515,377.005234 1116.33027,376.243243 C1116.47864,376.426836 1116.61071,376.625051 1116.72973,376.826516 C1116.37429,377.559262 1116.17375,378.319628 1116.15581,379.04425 C1115.72863,379.398438 1116.48516,379.115738 1115.71396,380.55036 C1115.35526,381.218118 1113.14436,384.407432 1112.79545,385.080063 C1112.52153,385.249034 1110.27477,388.223885 1110.06444,388.474091 C1107.91713,391.059011 1107.20299,392.46114 1105.51221,395.27027 Z M1117.63023,404.918229 C1117.16422,405.306926 1117.15051,405.930761 1117.54457,406.35145 C1115.85527,406.38824 1114.17283,406.469819 1112.49038,406.701757 C1111.50696,406.836122 1110.64347,407.084056 1109.81081,407.378378 C1109.85536,407.202425 1109.90161,407.028071 1109.95473,406.856916 C1110.56979,404.884638 1111.60119,403.44022 1113.39328,402.070982 C1114.34073,401.344774 1115.43038,400.898492 1116.13111,399.975536 C1116.69649,399.791585 1117.27215,399.745197 1117.85296,399.745197 L1117.87523,399.745197 C1117.90778,399.745197 1118.17505,399.486066 1118.40977,399.647623 C1118.36694,400.087507 1118.33953,400.332242 1118.27442,400.770526 C1118.25387,400.90489 1118.20589,400.90809 1118.13565,400.991268 C1118.12537,401.002465 1118.11338,401.154424 1118.10138,401.164022 C1118.08939,401.180018 1118.07054,401.344774 1118.05684,401.344774 C1118.03457,401.344774 1118.03971,401.344774 1118.01401,401.344774 C1117.86838,401.344774 1117.72617,401.156024 1117.58226,401.183217 C1117.23446,401.236003 1116.9552,401.291988 1116.68279,401.488736 C1115.99233,401.989404 1116.323,403.149097 1117.29785,403.014732 C1117.62509,402.968345 1117.93348,402.875569 1118.22988,402.789192 C1118.17848,403.321851 1118.20247,403.843313 1118.37208,404.329585 C1118.40806,404.436756 1118.41491,404.523134 1118.45946,404.620708 C1118.1682,404.646301 1117.84953,404.739076 1117.63023,404.918229 Z M1122.65513,395.423475 C1121.08006,395.327577 1119.50168,395.339354 1117.9431,395.509278 C1115.60275,395.770052 1113.70936,395.304024 1111.54054,396.135135 C1112.08151,394.710132 1112.6802,393.300271 1113.40754,391.924058 C1114.48288,389.884975 1115.44772,387.790372 1116.5511,385.766431 C1117.21576,384.545 1117.92331,383.320204 1118.90629,382.297297 C1119.16853,382.415066 1119.45056,382.521058 1119.76557,382.601814 C1119.99812,382.660698 1120.22572,382.687617 1120.45333,382.689299 C1120.30984,383.411054 1120.40385,384.121032 1120.7568,384.832692 C1120.46982,385.118702 1120.11027,385.38957 1119.60889,385.64025 C1118.40655,386.244236 1117.14484,386.797749 1116.41915,387.645685 C1114.92489,389.393711 1117.87383,390.719451 1120.01791,391.580846 C1121.14933,392.03678 1122.78708,392.512902 1122.78378,393.439911 C1122.78213,394.112876 1122.6271,394.762287 1122.65513,395.423475 Z" id="Shape"></path>
        </g>
    </g>
</svg>