<?xml version="1.0" encoding="UTF-8"?>
<svg width="186px" height="264px" viewBox="0 0 186 264" version="1.1" xmlns="http://www.w3.org/2000/svg" xmlns:xlink="http://www.w3.org/1999/xlink">
    <!-- Generator: Sketch 62 (91390) - https://sketch.com -->
    <title>SVG Layer</title>
    <desc>Created with Sketch.</desc>
    <g id="1" stroke="none" stroke-width="1" fill="none" fill-rule="evenodd">
        <g id="Artboard" transform="translate(-730.000000, -60.000000)" fill="#000000" fill-rule="nonzero">
            <g id="SVG-Layer" transform="translate(730.000000, 60.000000)">
                <path d="M92.90625,-0.00192569685 C51.991539,-0.2655 14.308491,26.95671 3.1875,68.25 C0.676479,77.57367 0.050394,86.74398 0.09375,95.53125 C0.24762,126.7158 16.999245,153.6576 35.90625,179.8125 C54.813255,205.9674 76.11396,231.7074 87.46875,259.875 C88.4051125,262.101227 90.5848684,263.549128 93,263.549128 C95.4151316,263.549128 97.5948875,262.101227 98.53125,259.875 C109.88604,231.7074 131.186745,205.9674 150.09375,179.8125 C169.000755,153.6576 185.75238,126.7158 185.90625,95.53125 C185.9496,86.74398 185.323521,77.57367 182.8125,68.25 C171.691509,26.95671 134.008461,-0.26556 93.09375,-0.00192569685 C93.03087,-0.00192569685 92.96916,-0.00192569685 92.90625,-0.00192569685 Z M92.90625,12 C92.9687462,12.0009765 93.0312538,12.0009765 93.09375,12 C128.69892,11.69532 161.474169,35.27724 171.1875,71.34375 C173.318655,79.25694 173.946414,87.39066 173.90625,95.53125 C173.77371,122.3928 158.911053,147.09615 140.34375,172.78125 C124.144593,195.19005 105.734673,218.24115 93,244.03125 C80.265327,218.24115 61.855407,195.19005 45.65625,172.78125 C27.088947,147.09615 12.22629,122.3928 12.09375,95.53125 C12.05358,87.39066 12.681345,79.25694 14.8125,71.34375 C24.525831,35.27724 57.30108,11.69532 92.90625,12 Z M92.8125,53.6249684 C71.621781,53.598 54.254364,70.89816 54.2812188,92.0625 C54.30825,113.22684 71.715528,130.473 92.90625,130.500039 C114.096969,130.53 131.370636,113.32059 131.343781,92.15625 C131.31675,70.99191 114.003222,53.65203 92.8125,53.6249684 Z M92.8125,65.6249776 C107.513856,65.643 119.325099,77.4738 119.343772,92.15625 C119.36235,106.83873 107.513856,118.51878 92.8125,118.500023 C78.111144,118.482 66.299901,106.74495 66.2812281,92.0625 C66.26265,77.38002 78.111144,65.60622 92.8125,65.6249776 Z" id="Shape"></path>
            </g>
        </g>
    </g>
</svg>