<?xml version="1.0" encoding="UTF-8"?>
<svg width="246px" height="168px" viewBox="0 0 246 168" version="1.1" xmlns="http://www.w3.org/2000/svg" xmlns:xlink="http://www.w3.org/1999/xlink">
    <!-- Generator: Sketch 62 (91390) - https://sketch.com -->
    <title>SVG Layer</title>
    <desc>Created with Sketch.</desc>
    <g id="1" stroke="none" stroke-width="1" fill="none" fill-rule="evenodd">
        <g id="Artboard" transform="translate(-397.000000, -105.000000)" fill="#5eb2bc" fill-rule="nonzero">
            <g id="SVG-Layer" transform="translate(397.000000, 105.000000)">
                <path d="M24,-5.99999998e-05 C10.8081,-5.99999998e-05 0,10.80813 0,24.00009 L0,144.00006 C0,157.19196 10.8081,168.00006 24,168.00006 L222,168.00006 C235.1919,168.00006 246,157.19196 246,144.00006 L246,24.00009 C246,10.80813 235.1919,-5.99999998e-05 222,-5.99999998e-05 L24,-5.99999998e-05 Z M24,12.00009 L222,12.00009 C223.7337,12.00009 225.3093,12.40269 226.7814,13.03149 L130.5,99.00006 C125.952,103.06146 120.2436,103.06206 115.6875,99.00006 L19.2186,13.03149 C20.6907,12.40269 22.2663,12.00009 24,12.00009 Z M12.0936,22.78149 L81.0936,84.28146 L13.3125,149.43756 C12.5199,147.82296 12,145.95936 12,144.00006 L12,24.00009 C12,23.58009 12.054,23.18889 12.093,22.78149 L12.0936,22.78149 Z M233.9064,22.78149 C233.9454,23.18889 233.9994,23.58009 233.9994,24.00009 L233.9994,144.00006 C233.9994,145.95936 233.4795,147.82296 232.6869,149.43756 L165.093,84.18756 L233.9058,22.78149 L233.9064,22.78149 Z M156.0936,92.25006 L222.2814,156.00006 C222.1854,156.00216 222.0954,156.00006 221.9994,156.00006 L23.9994,156.00006 C23.9034,156.00006 23.8134,156.00216 23.7174,156.00006 L90.0924,92.34366 L107.7174,108.00006 C116.4954,115.82616 129.6915,115.83756 138.4674,108.00006 L156.0924,92.25006 L156.0936,92.25006 Z" id="Shape"></path>
            </g>
        </g>
    </g>
</svg>