<?xml version="1.0" encoding="UTF-8"?>
<svg width="157px" height="257px" viewBox="0 0 157 257" version="1.1" xmlns="http://www.w3.org/2000/svg" xmlns:xlink="http://www.w3.org/1999/xlink">
    <!-- Generator: Sketch 62 (91390) - https://sketch.com -->
    <title>SVG Layer</title>
    <desc>Created with Sketch.</desc>
    <g id="1" stroke="none" stroke-width="1" fill="none" fill-rule="evenodd">
        <g id="Artboard" transform="translate(-98.000000, -60.000000)" fill="#00969b" fill-rule="nonzero">
            <g id="SVG-Layer" transform="translate(98.000000, 60.000000)">
                <path d="M121.1125,0.6625 L35.8875,0.6625 C16.3125,0.6625 0.375,16.6 0.375,36.175 L0.375,220.8375 C0.375,240.4125 16.3125,256.35 35.8875,256.35 L121.1125,256.35 C140.6875,256.35 156.625,240.4125 156.625,220.8375 L156.625,36.175 C156.625,16.5875 140.6875,0.6625 121.1125,0.6625 Z M142.425,220.825 C142.425,232.575 132.8625,242.1375 121.1125,242.1375 L35.8875,242.1375 C24.1375,242.1375 14.575,232.575 14.575,220.825 L14.575,36.175 C14.575,24.425 24.1375,14.8625 35.8875,14.8625 L121.1125,14.8625 C132.8625,14.8625 142.425,24.425 142.425,36.175 L142.425,220.825 L142.425,220.825 Z" id="Shape"></path>
                <circle id="Oval" cx="78.5" cy="220.825" r="14.2"></circle>
                <path d="M92.7,21.9625 L64.2875,21.9625 C60.3625,21.9625 57.1875,25.1375 57.1875,29.0625 C57.1875,32.9875 60.3625,36.1625 64.2875,36.1625 L92.7,36.1625 C96.625,36.1625 99.8,32.9875 99.8,29.0625 C99.8,25.1375 96.625,21.9625 92.7,21.9625 Z" id="Path"></path>
            </g>
        </g>
    </g>
</svg>