<svg width="284" height="188" viewBox="0 0 284 188" fill="none" xmlns="http://www.w3.org/2000/svg">
<g clip-path="url(#clip0_316_2)">
<path d="M55.4447 47.4729C54.191 52.164 52.7807 56.2296 51.9972 60.4516C46.9827 89.3802 56.0715 113.774 76.1295 134.571C86.7854 145.674 99.7918 153.023 115.149 155.838C129.722 158.496 143.512 156.307 156.205 148.645C178.3 135.197 185.822 107.519 173.599 84.8455C168.115 74.6814 160.123 66.5501 151.034 59.6698C129.095 43.2508 104.493 35.4323 76.913 36.5269C75.1893 36.5269 73.6223 36.5269 71.2717 36.5269C72.2119 35.1196 72.6821 34.025 73.4656 33.0867C84.1214 20.7334 97.9113 13.384 113.738 10.5694C157.772 2.75082 195.224 15.2605 224.998 48.7238C241.295 67.0192 249.914 88.9111 248.66 113.93C247.72 132.069 243.646 149.583 236.594 166.315C235.967 167.878 235.184 169.286 234.4 170.849C234.087 171.475 233.617 171.944 232.833 172.882C232.206 171.631 231.579 170.693 231.423 169.755C230.012 163.5 228.916 157.401 227.505 151.147C227.192 149.427 226.722 147.55 225.781 145.986C225.311 145.048 223.431 143.954 222.647 144.266C221.55 144.579 220.61 146.143 219.827 147.237C219.513 147.706 219.827 148.488 219.983 149.114C222.334 160.529 224.841 171.944 227.348 183.359C228.602 189.145 230.953 190.239 236.281 187.737C237.534 187.112 238.631 186.643 239.885 185.861C250.697 178.824 261.51 171.788 272.009 164.595C275.3 162.405 278.277 159.591 281.098 156.776C282.351 155.525 283.448 153.805 283.918 152.085C284.232 151.147 283.605 149.27 282.665 148.645C281.881 148.019 280.314 148.488 279.061 148.488C278.591 148.488 278.277 148.957 277.964 149.427C269.815 158.496 259.159 164.438 249.287 171.006C246.623 172.726 244.116 174.29 240.355 176.635C240.825 174.915 240.982 174.29 241.295 173.82C249.6 157.558 253.675 140.044 255.555 122.062C259.786 83.5945 244.272 52.9458 215.282 28.8647C191.62 9.31839 163.727 0.405254 133.013 1.03074C118.596 1.34348 104.493 4.15816 91.3298 10.7257C80.0471 16.3551 70.4882 24.1736 63.4365 34.6504C61.3994 37.6215 59.0488 39.0288 55.6014 40.1234C48.8631 42.1562 42.1249 44.3454 36.0134 47.4729C8.9037 60.9207 -4.2594 86.5655 1.22523 116.432C6.23974 144.579 22.0668 165.064 48.7064 176.635C53.7209 178.824 59.2055 179.606 64.6902 180.857C66.5706 181.326 68.7645 181.013 70.6449 180.701C72.2119 180.388 73.4656 179.137 72.9955 177.417C72.6821 176.322 71.4284 175.384 70.6449 174.602C70.3315 174.29 69.7047 174.446 69.2346 174.446C53.4075 173.82 40.8712 166.471 30.0587 155.994C15.7987 142.077 7.80678 125.033 7.49337 104.705C7.17996 87.191 14.0749 72.9613 27.0813 61.5462C34.9165 54.8223 45.8857 49.1929 55.4447 47.4729ZM82.0843 43.4072C102.142 43.5636 120.79 48.8802 137.714 59.357C148.213 65.7682 157.459 73.5868 164.51 83.7509C181.121 108.145 168.428 137.073 144.609 145.986C132.073 150.678 119.38 150.678 106.843 145.83C82.8678 136.448 68.1377 118.622 60.7726 94.3841C56.0715 79.0597 57.0117 63.7354 63.1231 48.8802C64.3768 45.7528 66.2572 44.3454 69.3913 44.1891C73.779 44.0327 77.8533 43.72 82.0843 43.4072Z" fill="white"/>
</g>
<defs>
<clipPath id="clip0_316_2">
<rect width="284" height="188" fill="white" transform="matrix(1 0 0 -1 0 188)"/>
</clipPath>
</defs>
</svg>
