<svg width="56" height="316" viewBox="0 0 56 316" fill="none" xmlns="http://www.w3.org/2000/svg">
<path d="M4.32569 2.16544C4.32569 3.3598 3.35982 4.32568 2.16545 4.32568C0.971093 4.32568 0.00521574 3.3598 0.00521574 2.16544C0.00521574 0.971076 0.971091 0.00520025 2.16545 0.00520025C3.34943 0.00520025 4.3205 0.97627 4.32569 2.16544ZM15.0801 0C13.8858 0 12.9199 0.965881 12.9199 2.16024C12.9199 3.3546 13.8858 4.32048 15.0801 4.32048C16.2745 4.32048 17.2404 3.3546 17.2404 2.16024C17.2404 0.976262 16.2693 0.00519286 15.0801 0ZM27.9948 0.00519933C26.8004 0.00519933 25.8346 0.971073 25.8346 2.16544C25.8346 3.3598 26.8004 4.32567 27.9948 4.32567C29.1892 4.32567 30.155 3.3598 30.155 2.16544C30.155 0.971077 29.1892 0.00519933 27.9948 0.00519933ZM40.9147 0.00518303C39.7203 0.00518303 38.7544 0.971057 38.7544 2.16542C38.7544 3.35978 39.7203 4.32567 40.9147 4.32567C42.109 4.32567 43.0749 3.3598 43.0749 2.16544C43.0749 0.971077 42.109 0.00518303 40.9147 0.00518303ZM53.8345 0.0051814C52.6402 0.0051814 51.6743 0.971059 51.6743 2.16542C51.6743 3.35978 52.6402 4.32567 53.8346 4.32567C55.0289 4.32567 55.9948 3.3598 55.9948 2.16544C55.9948 0.971073 55.0289 0.0051814 53.8345 0.0051814ZM2.16025 12.9199C0.965893 12.9199 1.71218e-05 13.8858 1.71218e-05 15.0801C1.71218e-05 16.2745 0.965893 17.2404 2.16025 17.2404C3.35462 17.2404 4.32049 16.2745 4.32049 15.0801C4.32568 13.891 3.35461 12.9199 2.16025 12.9199ZM15.0801 12.9199C13.8858 12.9199 12.9199 13.8858 12.9199 15.0801C12.9199 16.2745 13.8858 17.2404 15.0801 17.2404C16.2745 17.2404 17.2404 16.2745 17.2404 15.0801C17.2352 13.891 16.2693 12.9251 15.0801 12.9199ZM28 12.9199C26.8056 12.9199 25.8398 13.8857 25.8398 15.0801C25.8398 16.2745 26.8056 17.2404 28 17.2404C29.1944 17.2404 30.1602 16.2745 30.1602 15.0801C30.1551 13.8909 29.1892 12.9251 28 12.9199ZM40.9147 12.9251C39.7203 12.9251 38.7544 13.8909 38.7544 15.0853C38.7544 16.2797 39.7203 17.2456 40.9147 17.2456C42.109 17.2456 43.0749 16.2797 43.0749 15.0853C43.0749 13.891 42.109 12.9251 40.9147 12.9251ZM53.8345 12.9251C52.6402 12.9251 51.6743 13.8909 51.6743 15.0853C51.6743 16.2797 52.6402 17.2456 53.8346 17.2456C55.0289 17.2456 55.9948 16.2797 55.9948 15.0853C55.9948 13.891 55.0289 12.9251 53.8345 12.9251ZM2.16025 25.8398C0.965893 25.8398 1.71218e-05 26.8056 1.71218e-05 28C1.71218e-05 29.1944 0.965894 30.1602 2.16026 30.1602C3.35462 30.1602 4.32049 29.1944 4.32049 28C4.32049 26.8056 3.35462 25.8398 2.16025 25.8398ZM15.0801 25.8397C13.8858 25.8397 12.9199 26.8056 12.9199 28C12.9199 29.1943 13.8858 30.1602 15.0801 30.1602C16.2745 30.1602 17.2404 29.1944 17.2404 28C17.2404 26.8056 16.2745 25.8397 15.0801 25.8397ZM28 25.8397C26.8056 25.8397 25.8398 26.8056 25.8398 28C25.8398 29.1943 26.8056 30.1602 28 30.1602C29.1944 30.1602 30.1602 29.1944 30.1602 28C30.155 26.8108 29.1892 25.8449 28 25.8397ZM40.9199 25.8397C39.7255 25.8397 38.7596 26.8056 38.7596 28C38.7596 29.1943 39.7255 30.1602 40.9199 30.1602C42.1142 30.1602 43.0801 29.1944 43.0801 28C43.0749 26.8108 42.109 25.8449 40.9199 25.8397ZM53.8345 25.8449C52.6402 25.8449 51.6743 26.8108 51.6743 28.0052C51.6743 29.1995 52.6402 30.1654 53.8346 30.1654C55.0289 30.1654 55.9948 29.1996 55.9948 28.0052C55.9948 26.8108 55.0289 25.8449 53.8345 25.8449ZM2.16024 38.7596C0.965876 38.7596 0 39.7255 0 40.9199C0 42.1142 0.965893 43.0801 2.16025 43.0801C3.35462 43.0801 4.32049 42.1142 4.32049 40.9199C4.32049 39.7255 3.3546 38.7596 2.16024 38.7596ZM15.0801 38.7596C13.8858 38.7596 12.9199 39.7255 12.9199 40.9199C12.9199 42.1142 13.8858 43.0801 15.0801 43.0801C16.2745 43.0801 17.2404 42.1142 17.2404 40.9199C17.2404 39.7255 16.2745 38.7596 15.0801 38.7596ZM28 38.7596C26.8056 38.7596 25.8398 39.7255 25.8398 40.9199C25.8398 42.1142 26.8056 43.0801 28 43.0801C29.1944 43.0801 30.1602 42.1142 30.1602 40.9199C30.1602 39.7255 29.1943 38.7596 28 38.7596ZM40.9199 38.7596C39.7255 38.7596 38.7596 39.7255 38.7596 40.9199C38.7596 42.1142 39.7255 43.0801 40.9199 43.0801C42.1142 43.0801 43.0801 42.1142 43.0801 40.9199C43.0749 39.7307 42.109 38.7648 40.9199 38.7596ZM53.8397 38.7596C52.6454 38.7596 51.6795 39.7255 51.6795 40.9199C51.6795 42.1142 52.6454 43.0801 53.8398 43.0801C55.0341 43.0801 56 42.1142 56 40.9199C55.9948 39.7307 55.0289 38.7648 53.8397 38.7596ZM2.16024 51.6795C0.965878 51.6795 9.17241e-07 52.6454 9.17241e-07 53.8397C9.17241e-07 55.0341 0.965893 56 2.16025 56C3.35461 56 4.32049 55.0341 4.32049 53.8398C4.32049 52.6454 3.3546 51.6795 2.16024 51.6795ZM15.0801 51.6795C13.8857 51.6795 12.9199 52.6454 12.9199 53.8397C12.9199 55.0341 13.8858 56 15.0801 56C16.2745 56 17.2404 55.0341 17.2404 53.8398C17.2404 52.6454 16.2745 51.6795 15.0801 51.6795ZM28 51.6795C26.8056 51.6795 25.8398 52.6454 25.8398 53.8398C25.8398 55.0341 26.8056 56 28 56C29.1944 56 30.1602 55.0341 30.1602 53.8398C30.1602 52.6454 29.1944 51.6795 28 51.6795ZM40.9199 51.6795C39.7255 51.6795 38.7596 52.6454 38.7596 53.8397C38.7596 55.0341 39.7255 56 40.9199 56C42.1142 56 43.0801 55.0341 43.0801 53.8398C43.0801 52.6454 42.1142 51.6795 40.9199 51.6795ZM53.8397 51.6795C52.6454 51.6795 51.6795 52.6454 51.6795 53.8397C51.6795 55.0341 52.6454 56 53.8398 56C55.0341 56 56 55.0341 56 53.8398C56 52.6454 55.0289 51.6847 53.8397 51.6795Z" />
<path d="M4.32569 54.1654C4.32569 55.3598 3.35982 56.3257 2.16545 56.3257C0.971093 56.3257 0.00521574 55.3598 0.00521574 54.1654C0.00521574 52.9711 0.971091 52.0052 2.16545 52.0052C3.34943 52.0052 4.3205 52.9763 4.32569 54.1654ZM15.0801 52C13.8858 52 12.9199 52.9659 12.9199 54.1602C12.9199 55.3546 13.8858 56.3205 15.0801 56.3205C16.2745 56.3205 17.2404 55.3546 17.2404 54.1602C17.2404 52.9763 16.2693 52.0052 15.0801 52ZM27.9948 52.0052C26.8004 52.0052 25.8346 52.9711 25.8346 54.1654C25.8346 55.3598 26.8004 56.3257 27.9948 56.3257C29.1892 56.3257 30.155 55.3598 30.155 54.1654C30.155 52.9711 29.1892 52.0052 27.9948 52.0052ZM40.9147 52.0052C39.7203 52.0052 38.7544 52.9711 38.7544 54.1654C38.7544 55.3598 39.7203 56.3257 40.9147 56.3257C42.109 56.3257 43.0749 55.3598 43.0749 54.1654C43.0749 52.9711 42.109 52.0052 40.9147 52.0052ZM53.8345 52.0052C52.6402 52.0052 51.6743 52.9711 51.6743 54.1654C51.6743 55.3598 52.6402 56.3257 53.8346 56.3257C55.0289 56.3257 55.9948 55.3598 55.9948 54.1654C55.9948 52.9711 55.0289 52.0052 53.8345 52.0052ZM2.16025 64.9199C0.965893 64.9199 1.71218e-05 65.8858 1.71218e-05 67.0801C1.71218e-05 68.2745 0.965893 69.2404 2.16025 69.2404C3.35462 69.2404 4.32049 68.2745 4.32049 67.0801C4.32568 65.891 3.35461 64.9199 2.16025 64.9199ZM15.0801 64.9199C13.8858 64.9199 12.9199 65.8858 12.9199 67.0801C12.9199 68.2745 13.8858 69.2404 15.0801 69.2404C16.2745 69.2404 17.2404 68.2745 17.2404 67.0801C17.2352 65.891 16.2693 64.9251 15.0801 64.9199ZM28 64.9199C26.8056 64.9199 25.8398 65.8857 25.8398 67.0801C25.8398 68.2745 26.8056 69.2404 28 69.2404C29.1944 69.2404 30.1602 68.2745 30.1602 67.0801C30.1551 65.8909 29.1892 64.9251 28 64.9199ZM40.9147 64.9251C39.7203 64.9251 38.7544 65.8909 38.7544 67.0853C38.7544 68.2797 39.7203 69.2456 40.9147 69.2456C42.109 69.2456 43.0749 68.2797 43.0749 67.0853C43.0749 65.891 42.109 64.9251 40.9147 64.9251ZM53.8345 64.9251C52.6402 64.9251 51.6743 65.8909 51.6743 67.0853C51.6743 68.2797 52.6402 69.2456 53.8346 69.2456C55.0289 69.2456 55.9948 68.2797 55.9948 67.0853C55.9948 65.891 55.0289 64.9251 53.8345 64.9251ZM2.16025 77.8398C0.965893 77.8398 1.71218e-05 78.8056 1.71218e-05 80C1.71218e-05 81.1944 0.965894 82.1602 2.16026 82.1602C3.35462 82.1602 4.32049 81.1944 4.32049 80C4.32049 78.8056 3.35462 77.8398 2.16025 77.8398ZM15.0801 77.8397C13.8858 77.8397 12.9199 78.8056 12.9199 80C12.9199 81.1943 13.8858 82.1602 15.0801 82.1602C16.2745 82.1602 17.2404 81.1944 17.2404 80C17.2404 78.8056 16.2745 77.8397 15.0801 77.8397ZM28 77.8397C26.8056 77.8397 25.8398 78.8056 25.8398 80C25.8398 81.1943 26.8056 82.1602 28 82.1602C29.1944 82.1602 30.1602 81.1944 30.1602 80C30.155 78.8108 29.1892 77.8449 28 77.8397ZM40.9199 77.8397C39.7255 77.8397 38.7596 78.8056 38.7596 80C38.7596 81.1943 39.7255 82.1602 40.9199 82.1602C42.1142 82.1602 43.0801 81.1944 43.0801 80C43.0749 78.8108 42.109 77.8449 40.9199 77.8397ZM53.8345 77.8449C52.6402 77.8449 51.6743 78.8108 51.6743 80.0052C51.6743 81.1995 52.6402 82.1654 53.8346 82.1654C55.0289 82.1654 55.9948 81.1996 55.9948 80.0052C55.9948 78.8108 55.0289 77.8449 53.8345 77.8449ZM2.16024 90.7596C0.965876 90.7596 0 91.7255 0 92.9199C0 94.1142 0.965893 95.0801 2.16025 95.0801C3.35462 95.0801 4.32049 94.1142 4.32049 92.9199C4.32049 91.7255 3.3546 90.7596 2.16024 90.7596ZM15.0801 90.7596C13.8858 90.7596 12.9199 91.7255 12.9199 92.9199C12.9199 94.1142 13.8858 95.0801 15.0801 95.0801C16.2745 95.0801 17.2404 94.1142 17.2404 92.9199C17.2404 91.7255 16.2745 90.7596 15.0801 90.7596ZM28 90.7596C26.8056 90.7596 25.8398 91.7255 25.8398 92.9199C25.8398 94.1142 26.8056 95.0801 28 95.0801C29.1944 95.0801 30.1602 94.1142 30.1602 92.9199C30.1602 91.7255 29.1943 90.7596 28 90.7596ZM40.9199 90.7596C39.7255 90.7596 38.7596 91.7255 38.7596 92.9199C38.7596 94.1142 39.7255 95.0801 40.9199 95.0801C42.1142 95.0801 43.0801 94.1142 43.0801 92.9199C43.0749 91.7307 42.109 90.7648 40.9199 90.7596ZM53.8397 90.7596C52.6454 90.7596 51.6795 91.7255 51.6795 92.9199C51.6795 94.1142 52.6454 95.0801 53.8398 95.0801C55.0341 95.0801 56 94.1142 56 92.9199C55.9948 91.7307 55.0289 90.7648 53.8397 90.7596ZM2.16024 103.68C0.965878 103.68 9.17241e-07 104.645 9.17241e-07 105.84C9.17241e-07 107.034 0.965893 108 2.16025 108C3.35461 108 4.32049 107.034 4.32049 105.84C4.32049 104.645 3.3546 103.68 2.16024 103.68ZM15.0801 103.68C13.8857 103.68 12.9199 104.645 12.9199 105.84C12.9199 107.034 13.8858 108 15.0801 108C16.2745 108 17.2404 107.034 17.2404 105.84C17.2404 104.645 16.2745 103.68 15.0801 103.68ZM28 103.68C26.8056 103.68 25.8398 104.645 25.8398 105.84C25.8398 107.034 26.8056 108 28 108C29.1944 108 30.1602 107.034 30.1602 105.84C30.1602 104.645 29.1944 103.68 28 103.68ZM40.9199 103.68C39.7255 103.68 38.7596 104.645 38.7596 105.84C38.7596 107.034 39.7255 108 40.9199 108C42.1142 108 43.0801 107.034 43.0801 105.84C43.0801 104.645 42.1142 103.68 40.9199 103.68ZM53.8397 103.68C52.6454 103.68 51.6795 104.645 51.6795 105.84C51.6795 107.034 52.6454 108 53.8398 108C55.0341 108 56 107.034 56 105.84C56 104.645 55.0289 103.685 53.8397 103.68Z" />
<path d="M4.32569 106.165C4.32569 107.36 3.35982 108.326 2.16545 108.326C0.971093 108.326 0.00521574 107.36 0.00521574 106.165C0.00521574 104.971 0.971091 104.005 2.16545 104.005C3.34943 104.005 4.3205 104.976 4.32569 106.165ZM15.0801 104C13.8858 104 12.9199 104.966 12.9199 106.16C12.9199 107.355 13.8858 108.32 15.0801 108.32C16.2745 108.32 17.2404 107.355 17.2404 106.16C17.2404 104.976 16.2693 104.005 15.0801 104ZM27.9948 104.005C26.8004 104.005 25.8346 104.971 25.8346 106.165C25.8346 107.36 26.8004 108.326 27.9948 108.326C29.1892 108.326 30.155 107.36 30.155 106.165C30.155 104.971 29.1892 104.005 27.9948 104.005ZM40.9147 104.005C39.7203 104.005 38.7544 104.971 38.7544 106.165C38.7544 107.36 39.7203 108.326 40.9147 108.326C42.109 108.326 43.0749 107.36 43.0749 106.165C43.0749 104.971 42.109 104.005 40.9147 104.005ZM53.8345 104.005C52.6402 104.005 51.6743 104.971 51.6743 106.165C51.6743 107.36 52.6402 108.326 53.8346 108.326C55.0289 108.326 55.9948 107.36 55.9948 106.165C55.9948 104.971 55.0289 104.005 53.8345 104.005ZM2.16025 116.92C0.965893 116.92 1.71218e-05 117.886 1.71218e-05 119.08C1.71218e-05 120.274 0.965893 121.24 2.16025 121.24C3.35462 121.24 4.32049 120.274 4.32049 119.08C4.32568 117.891 3.35461 116.92 2.16025 116.92ZM15.0801 116.92C13.8858 116.92 12.9199 117.886 12.9199 119.08C12.9199 120.274 13.8858 121.24 15.0801 121.24C16.2745 121.24 17.2404 120.274 17.2404 119.08C17.2352 117.891 16.2693 116.925 15.0801 116.92ZM28 116.92C26.8056 116.92 25.8398 117.886 25.8398 119.08C25.8398 120.274 26.8056 121.24 28 121.24C29.1944 121.24 30.1602 120.274 30.1602 119.08C30.1551 117.891 29.1892 116.925 28 116.92ZM40.9147 116.925C39.7203 116.925 38.7544 117.891 38.7544 119.085C38.7544 120.28 39.7203 121.246 40.9147 121.246C42.109 121.246 43.0749 120.28 43.0749 119.085C43.0749 117.891 42.109 116.925 40.9147 116.925ZM53.8345 116.925C52.6402 116.925 51.6743 117.891 51.6743 119.085C51.6743 120.28 52.6402 121.246 53.8346 121.246C55.0289 121.246 55.9948 120.28 55.9948 119.085C55.9948 117.891 55.0289 116.925 53.8345 116.925ZM2.16025 129.84C0.965893 129.84 1.71218e-05 130.806 1.71218e-05 132C1.71218e-05 133.194 0.965894 134.16 2.16026 134.16C3.35462 134.16 4.32049 133.194 4.32049 132C4.32049 130.806 3.35462 129.84 2.16025 129.84ZM15.0801 129.84C13.8858 129.84 12.9199 130.806 12.9199 132C12.9199 133.194 13.8858 134.16 15.0801 134.16C16.2745 134.16 17.2404 133.194 17.2404 132C17.2404 130.806 16.2745 129.84 15.0801 129.84ZM28 129.84C26.8056 129.84 25.8398 130.806 25.8398 132C25.8398 133.194 26.8056 134.16 28 134.16C29.1944 134.16 30.1602 133.194 30.1602 132C30.155 130.811 29.1892 129.845 28 129.84ZM40.9199 129.84C39.7255 129.84 38.7596 130.806 38.7596 132C38.7596 133.194 39.7255 134.16 40.9199 134.16C42.1142 134.16 43.0801 133.194 43.0801 132C43.0749 130.811 42.109 129.845 40.9199 129.84ZM53.8345 129.845C52.6402 129.845 51.6743 130.811 51.6743 132.005C51.6743 133.2 52.6402 134.165 53.8346 134.165C55.0289 134.165 55.9948 133.2 55.9948 132.005C55.9948 130.811 55.0289 129.845 53.8345 129.845ZM2.16024 142.76C0.965876 142.76 0 143.726 0 144.92C0 146.114 0.965893 147.08 2.16025 147.08C3.35462 147.08 4.32049 146.114 4.32049 144.92C4.32049 143.726 3.3546 142.76 2.16024 142.76ZM15.0801 142.76C13.8858 142.76 12.9199 143.726 12.9199 144.92C12.9199 146.114 13.8858 147.08 15.0801 147.08C16.2745 147.08 17.2404 146.114 17.2404 144.92C17.2404 143.726 16.2745 142.76 15.0801 142.76ZM28 142.76C26.8056 142.76 25.8398 143.725 25.8398 144.92C25.8398 146.114 26.8056 147.08 28 147.08C29.1944 147.08 30.1602 146.114 30.1602 144.92C30.1602 143.726 29.1943 142.76 28 142.76ZM40.9199 142.76C39.7255 142.76 38.7596 143.726 38.7596 144.92C38.7596 146.114 39.7255 147.08 40.9199 147.08C42.1142 147.08 43.0801 146.114 43.0801 144.92C43.0749 143.731 42.109 142.765 40.9199 142.76ZM53.8397 142.76C52.6454 142.76 51.6795 143.726 51.6795 144.92C51.6795 146.114 52.6454 147.08 53.8398 147.08C55.0341 147.08 56 146.114 56 144.92C55.9948 143.731 55.0289 142.765 53.8397 142.76ZM2.16024 155.68C0.965878 155.68 9.17241e-07 156.645 9.17241e-07 157.84C9.17241e-07 159.034 0.965893 160 2.16025 160C3.35461 160 4.32049 159.034 4.32049 157.84C4.32049 156.645 3.3546 155.68 2.16024 155.68ZM15.0801 155.68C13.8857 155.68 12.9199 156.645 12.9199 157.84C12.9199 159.034 13.8858 160 15.0801 160C16.2745 160 17.2404 159.034 17.2404 157.84C17.2404 156.645 16.2745 155.68 15.0801 155.68ZM28 155.68C26.8056 155.68 25.8398 156.645 25.8398 157.84C25.8398 159.034 26.8056 160 28 160C29.1944 160 30.1602 159.034 30.1602 157.84C30.1602 156.645 29.1944 155.68 28 155.68ZM40.9199 155.68C39.7255 155.68 38.7596 156.645 38.7596 157.84C38.7596 159.034 39.7255 160 40.9199 160C42.1142 160 43.0801 159.034 43.0801 157.84C43.0801 156.645 42.1142 155.68 40.9199 155.68ZM53.8397 155.68C52.6454 155.68 51.6795 156.645 51.6795 157.84C51.6795 159.034 52.6454 160 53.8398 160C55.0341 160 56 159.034 56 157.84C56 156.645 55.0289 155.685 53.8397 155.68Z" />
<path d="M4.32569 158.165C4.32569 159.36 3.35982 160.326 2.16545 160.326C0.971093 160.326 0.00521574 159.36 0.00521574 158.165C0.00521574 156.971 0.971091 156.005 2.16545 156.005C3.34943 156.005 4.3205 156.976 4.32569 158.165ZM15.0801 156C13.8858 156 12.9199 156.966 12.9199 158.16C12.9199 159.355 13.8858 160.32 15.0801 160.32C16.2745 160.32 17.2404 159.355 17.2404 158.16C17.2404 156.976 16.2693 156.005 15.0801 156ZM27.9948 156.005C26.8004 156.005 25.8346 156.971 25.8346 158.165C25.8346 159.36 26.8004 160.326 27.9948 160.326C29.1892 160.326 30.155 159.36 30.155 158.165C30.155 156.971 29.1892 156.005 27.9948 156.005ZM40.9147 156.005C39.7203 156.005 38.7544 156.971 38.7544 158.165C38.7544 159.36 39.7203 160.326 40.9147 160.326C42.109 160.326 43.0749 159.36 43.0749 158.165C43.0749 156.971 42.109 156.005 40.9147 156.005ZM53.8345 156.005C52.6402 156.005 51.6743 156.971 51.6743 158.165C51.6743 159.36 52.6402 160.326 53.8346 160.326C55.0289 160.326 55.9948 159.36 55.9948 158.165C55.9948 156.971 55.0289 156.005 53.8345 156.005ZM2.16025 168.92C0.965893 168.92 1.71218e-05 169.886 1.71218e-05 171.08C1.71218e-05 172.274 0.965893 173.24 2.16025 173.24C3.35462 173.24 4.32049 172.274 4.32049 171.08C4.32568 169.891 3.35461 168.92 2.16025 168.92ZM15.0801 168.92C13.8858 168.92 12.9199 169.886 12.9199 171.08C12.9199 172.274 13.8858 173.24 15.0801 173.24C16.2745 173.24 17.2404 172.274 17.2404 171.08C17.2352 169.891 16.2693 168.925 15.0801 168.92ZM28 168.92C26.8056 168.92 25.8398 169.886 25.8398 171.08C25.8398 172.274 26.8056 173.24 28 173.24C29.1944 173.24 30.1602 172.274 30.1602 171.08C30.1551 169.891 29.1892 168.925 28 168.92ZM40.9147 168.925C39.7203 168.925 38.7544 169.891 38.7544 171.085C38.7544 172.28 39.7203 173.246 40.9147 173.246C42.109 173.246 43.0749 172.28 43.0749 171.085C43.0749 169.891 42.109 168.925 40.9147 168.925ZM53.8345 168.925C52.6402 168.925 51.6743 169.891 51.6743 171.085C51.6743 172.28 52.6402 173.246 53.8346 173.246C55.0289 173.246 55.9948 172.28 55.9948 171.085C55.9948 169.891 55.0289 168.925 53.8345 168.925ZM2.16025 181.84C0.965893 181.84 1.71218e-05 182.806 1.71218e-05 184C1.71218e-05 185.194 0.965894 186.16 2.16026 186.16C3.35462 186.16 4.32049 185.194 4.32049 184C4.32049 182.806 3.35462 181.84 2.16025 181.84ZM15.0801 181.84C13.8858 181.84 12.9199 182.806 12.9199 184C12.9199 185.194 13.8858 186.16 15.0801 186.16C16.2745 186.16 17.2404 185.194 17.2404 184C17.2404 182.806 16.2745 181.84 15.0801 181.84ZM28 181.84C26.8056 181.84 25.8398 182.806 25.8398 184C25.8398 185.194 26.8056 186.16 28 186.16C29.1944 186.16 30.1602 185.194 30.1602 184C30.155 182.811 29.1892 181.845 28 181.84ZM40.9199 181.84C39.7255 181.84 38.7596 182.806 38.7596 184C38.7596 185.194 39.7255 186.16 40.9199 186.16C42.1142 186.16 43.0801 185.194 43.0801 184C43.0749 182.811 42.109 181.845 40.9199 181.84ZM53.8345 181.845C52.6402 181.845 51.6743 182.811 51.6743 184.005C51.6743 185.2 52.6402 186.165 53.8346 186.165C55.0289 186.165 55.9948 185.2 55.9948 184.005C55.9948 182.811 55.0289 181.845 53.8345 181.845ZM2.16024 194.76C0.965876 194.76 0 195.726 0 196.92C0 198.114 0.965893 199.08 2.16025 199.08C3.35462 199.08 4.32049 198.114 4.32049 196.92C4.32049 195.726 3.3546 194.76 2.16024 194.76ZM15.0801 194.76C13.8858 194.76 12.9199 195.726 12.9199 196.92C12.9199 198.114 13.8858 199.08 15.0801 199.08C16.2745 199.08 17.2404 198.114 17.2404 196.92C17.2404 195.726 16.2745 194.76 15.0801 194.76ZM28 194.76C26.8056 194.76 25.8398 195.725 25.8398 196.92C25.8398 198.114 26.8056 199.08 28 199.08C29.1944 199.08 30.1602 198.114 30.1602 196.92C30.1602 195.726 29.1943 194.76 28 194.76ZM40.9199 194.76C39.7255 194.76 38.7596 195.726 38.7596 196.92C38.7596 198.114 39.7255 199.08 40.9199 199.08C42.1142 199.08 43.0801 198.114 43.0801 196.92C43.0749 195.731 42.109 194.765 40.9199 194.76ZM53.8397 194.76C52.6454 194.76 51.6795 195.726 51.6795 196.92C51.6795 198.114 52.6454 199.08 53.8398 199.08C55.0341 199.08 56 198.114 56 196.92C55.9948 195.731 55.0289 194.765 53.8397 194.76ZM2.16024 207.68C0.965878 207.68 9.17241e-07 208.645 9.17241e-07 209.84C9.17241e-07 211.034 0.965893 212 2.16025 212C3.35461 212 4.32049 211.034 4.32049 209.84C4.32049 208.645 3.3546 207.68 2.16024 207.68ZM15.0801 207.68C13.8857 207.68 12.9199 208.645 12.9199 209.84C12.9199 211.034 13.8858 212 15.0801 212C16.2745 212 17.2404 211.034 17.2404 209.84C17.2404 208.645 16.2745 207.68 15.0801 207.68ZM28 207.68C26.8056 207.68 25.8398 208.645 25.8398 209.84C25.8398 211.034 26.8056 212 28 212C29.1944 212 30.1602 211.034 30.1602 209.84C30.1602 208.645 29.1944 207.68 28 207.68ZM40.9199 207.68C39.7255 207.68 38.7596 208.645 38.7596 209.84C38.7596 211.034 39.7255 212 40.9199 212C42.1142 212 43.0801 211.034 43.0801 209.84C43.0801 208.645 42.1142 207.68 40.9199 207.68ZM53.8397 207.68C52.6454 207.68 51.6795 208.645 51.6795 209.84C51.6795 211.034 52.6454 212 53.8398 212C55.0341 212 56 211.034 56 209.84C56 208.645 55.0289 207.685 53.8397 207.68Z" />
<path d="M4.32569 210.165C4.32569 211.36 3.35982 212.326 2.16545 212.326C0.971093 212.326 0.00521574 211.36 0.00521574 210.165C0.00521574 208.971 0.971091 208.005 2.16545 208.005C3.34943 208.005 4.3205 208.976 4.32569 210.165ZM15.0801 208C13.8858 208 12.9199 208.966 12.9199 210.16C12.9199 211.355 13.8858 212.32 15.0801 212.32C16.2745 212.32 17.2404 211.355 17.2404 210.16C17.2404 208.976 16.2693 208.005 15.0801 208ZM27.9948 208.005C26.8004 208.005 25.8346 208.971 25.8346 210.165C25.8346 211.36 26.8004 212.326 27.9948 212.326C29.1892 212.326 30.155 211.36 30.155 210.165C30.155 208.971 29.1892 208.005 27.9948 208.005ZM40.9147 208.005C39.7203 208.005 38.7544 208.971 38.7544 210.165C38.7544 211.36 39.7203 212.326 40.9147 212.326C42.109 212.326 43.0749 211.36 43.0749 210.165C43.0749 208.971 42.109 208.005 40.9147 208.005ZM53.8345 208.005C52.6402 208.005 51.6743 208.971 51.6743 210.165C51.6743 211.36 52.6402 212.326 53.8346 212.326C55.0289 212.326 55.9948 211.36 55.9948 210.165C55.9948 208.971 55.0289 208.005 53.8345 208.005ZM2.16025 220.92C0.965893 220.92 1.71218e-05 221.886 1.71218e-05 223.08C1.71218e-05 224.274 0.965893 225.24 2.16025 225.24C3.35462 225.24 4.32049 224.274 4.32049 223.08C4.32568 221.891 3.35461 220.92 2.16025 220.92ZM15.0801 220.92C13.8858 220.92 12.9199 221.886 12.9199 223.08C12.9199 224.274 13.8858 225.24 15.0801 225.24C16.2745 225.24 17.2404 224.274 17.2404 223.08C17.2352 221.891 16.2693 220.925 15.0801 220.92ZM28 220.92C26.8056 220.92 25.8398 221.886 25.8398 223.08C25.8398 224.274 26.8056 225.24 28 225.24C29.1944 225.24 30.1602 224.274 30.1602 223.08C30.1551 221.891 29.1892 220.925 28 220.92ZM40.9147 220.925C39.7203 220.925 38.7544 221.891 38.7544 223.085C38.7544 224.28 39.7203 225.246 40.9147 225.246C42.109 225.246 43.0749 224.28 43.0749 223.085C43.0749 221.891 42.109 220.925 40.9147 220.925ZM53.8345 220.925C52.6402 220.925 51.6743 221.891 51.6743 223.085C51.6743 224.28 52.6402 225.246 53.8346 225.246C55.0289 225.246 55.9948 224.28 55.9948 223.085C55.9948 221.891 55.0289 220.925 53.8345 220.925ZM2.16025 233.84C0.965893 233.84 1.71218e-05 234.806 1.71218e-05 236C1.71218e-05 237.194 0.965894 238.16 2.16026 238.16C3.35462 238.16 4.32049 237.194 4.32049 236C4.32049 234.806 3.35462 233.84 2.16025 233.84ZM15.0801 233.84C13.8858 233.84 12.9199 234.806 12.9199 236C12.9199 237.194 13.8858 238.16 15.0801 238.16C16.2745 238.16 17.2404 237.194 17.2404 236C17.2404 234.806 16.2745 233.84 15.0801 233.84ZM28 233.84C26.8056 233.84 25.8398 234.806 25.8398 236C25.8398 237.194 26.8056 238.16 28 238.16C29.1944 238.16 30.1602 237.194 30.1602 236C30.155 234.811 29.1892 233.845 28 233.84ZM40.9199 233.84C39.7255 233.84 38.7596 234.806 38.7596 236C38.7596 237.194 39.7255 238.16 40.9199 238.16C42.1142 238.16 43.0801 237.194 43.0801 236C43.0749 234.811 42.109 233.845 40.9199 233.84ZM53.8345 233.845C52.6402 233.845 51.6743 234.811 51.6743 236.005C51.6743 237.2 52.6402 238.165 53.8346 238.165C55.0289 238.165 55.9948 237.2 55.9948 236.005C55.9948 234.811 55.0289 233.845 53.8345 233.845ZM2.16024 246.76C0.965876 246.76 0 247.726 0 248.92C0 250.114 0.965893 251.08 2.16025 251.08C3.35462 251.08 4.32049 250.114 4.32049 248.92C4.32049 247.726 3.3546 246.76 2.16024 246.76ZM15.0801 246.76C13.8858 246.76 12.9199 247.726 12.9199 248.92C12.9199 250.114 13.8858 251.08 15.0801 251.08C16.2745 251.08 17.2404 250.114 17.2404 248.92C17.2404 247.726 16.2745 246.76 15.0801 246.76ZM28 246.76C26.8056 246.76 25.8398 247.725 25.8398 248.92C25.8398 250.114 26.8056 251.08 28 251.08C29.1944 251.08 30.1602 250.114 30.1602 248.92C30.1602 247.726 29.1943 246.76 28 246.76ZM40.9199 246.76C39.7255 246.76 38.7596 247.726 38.7596 248.92C38.7596 250.114 39.7255 251.08 40.9199 251.08C42.1142 251.08 43.0801 250.114 43.0801 248.92C43.0749 247.731 42.109 246.765 40.9199 246.76ZM53.8397 246.76C52.6454 246.76 51.6795 247.726 51.6795 248.92C51.6795 250.114 52.6454 251.08 53.8398 251.08C55.0341 251.08 56 250.114 56 248.92C55.9948 247.731 55.0289 246.765 53.8397 246.76ZM2.16024 259.68C0.965878 259.68 9.17241e-07 260.645 9.17241e-07 261.84C9.17241e-07 263.034 0.965893 264 2.16025 264C3.35461 264 4.32049 263.034 4.32049 261.84C4.32049 260.645 3.3546 259.68 2.16024 259.68ZM15.0801 259.68C13.8857 259.68 12.9199 260.645 12.9199 261.84C12.9199 263.034 13.8858 264 15.0801 264C16.2745 264 17.2404 263.034 17.2404 261.84C17.2404 260.645 16.2745 259.68 15.0801 259.68ZM28 259.68C26.8056 259.68 25.8398 260.645 25.8398 261.84C25.8398 263.034 26.8056 264 28 264C29.1944 264 30.1602 263.034 30.1602 261.84C30.1602 260.645 29.1944 259.68 28 259.68ZM40.9199 259.68C39.7255 259.68 38.7596 260.645 38.7596 261.84C38.7596 263.034 39.7255 264 40.9199 264C42.1142 264 43.0801 263.034 43.0801 261.84C43.0801 260.645 42.1142 259.68 40.9199 259.68ZM53.8397 259.68C52.6454 259.68 51.6795 260.645 51.6795 261.84C51.6795 263.034 52.6454 264 53.8398 264C55.0341 264 56 263.034 56 261.84C56 260.645 55.0289 259.685 53.8397 259.68Z" />
<path d="M4.32569 262.165C4.32569 263.36 3.35982 264.326 2.16545 264.326C0.971093 264.326 0.00521574 263.36 0.00521574 262.165C0.00521574 260.971 0.971091 260.005 2.16545 260.005C3.34943 260.005 4.3205 260.976 4.32569 262.165ZM15.0801 260C13.8858 260 12.9199 260.966 12.9199 262.16C12.9199 263.355 13.8858 264.32 15.0801 264.32C16.2745 264.32 17.2404 263.355 17.2404 262.16C17.2404 260.976 16.2693 260.005 15.0801 260ZM27.9948 260.005C26.8004 260.005 25.8346 260.971 25.8346 262.165C25.8346 263.36 26.8004 264.326 27.9948 264.326C29.1892 264.326 30.155 263.36 30.155 262.165C30.155 260.971 29.1892 260.005 27.9948 260.005ZM40.9147 260.005C39.7203 260.005 38.7544 260.971 38.7544 262.165C38.7544 263.36 39.7203 264.326 40.9147 264.326C42.109 264.326 43.0749 263.36 43.0749 262.165C43.0749 260.971 42.109 260.005 40.9147 260.005ZM53.8345 260.005C52.6402 260.005 51.6743 260.971 51.6743 262.165C51.6743 263.36 52.6402 264.326 53.8346 264.326C55.0289 264.326 55.9948 263.36 55.9948 262.165C55.9948 260.971 55.0289 260.005 53.8345 260.005ZM2.16025 272.92C0.965893 272.92 1.71218e-05 273.886 1.71218e-05 275.08C1.71218e-05 276.274 0.965893 277.24 2.16025 277.24C3.35462 277.24 4.32049 276.274 4.32049 275.08C4.32568 273.891 3.35461 272.92 2.16025 272.92ZM15.0801 272.92C13.8858 272.92 12.9199 273.886 12.9199 275.08C12.9199 276.274 13.8858 277.24 15.0801 277.24C16.2745 277.24 17.2404 276.274 17.2404 275.08C17.2352 273.891 16.2693 272.925 15.0801 272.92ZM28 272.92C26.8056 272.92 25.8398 273.886 25.8398 275.08C25.8398 276.274 26.8056 277.24 28 277.24C29.1944 277.24 30.1602 276.274 30.1602 275.08C30.1551 273.891 29.1892 272.925 28 272.92ZM40.9147 272.925C39.7203 272.925 38.7544 273.891 38.7544 275.085C38.7544 276.28 39.7203 277.246 40.9147 277.246C42.109 277.246 43.0749 276.28 43.0749 275.085C43.0749 273.891 42.109 272.925 40.9147 272.925ZM53.8345 272.925C52.6402 272.925 51.6743 273.891 51.6743 275.085C51.6743 276.28 52.6402 277.246 53.8346 277.246C55.0289 277.246 55.9948 276.28 55.9948 275.085C55.9948 273.891 55.0289 272.925 53.8345 272.925ZM2.16025 285.84C0.965893 285.84 1.71218e-05 286.806 1.71218e-05 288C1.71218e-05 289.194 0.965894 290.16 2.16026 290.16C3.35462 290.16 4.32049 289.194 4.32049 288C4.32049 286.806 3.35462 285.84 2.16025 285.84ZM15.0801 285.84C13.8858 285.84 12.9199 286.806 12.9199 288C12.9199 289.194 13.8858 290.16 15.0801 290.16C16.2745 290.16 17.2404 289.194 17.2404 288C17.2404 286.806 16.2745 285.84 15.0801 285.84ZM28 285.84C26.8056 285.84 25.8398 286.806 25.8398 288C25.8398 289.194 26.8056 290.16 28 290.16C29.1944 290.16 30.1602 289.194 30.1602 288C30.155 286.811 29.1892 285.845 28 285.84ZM40.9199 285.84C39.7255 285.84 38.7596 286.806 38.7596 288C38.7596 289.194 39.7255 290.16 40.9199 290.16C42.1142 290.16 43.0801 289.194 43.0801 288C43.0749 286.811 42.109 285.845 40.9199 285.84ZM53.8345 285.845C52.6402 285.845 51.6743 286.811 51.6743 288.005C51.6743 289.2 52.6402 290.165 53.8346 290.165C55.0289 290.165 55.9948 289.2 55.9948 288.005C55.9948 286.811 55.0289 285.845 53.8345 285.845ZM2.16024 298.76C0.965876 298.76 0 299.726 0 300.92C0 302.114 0.965893 303.08 2.16025 303.08C3.35462 303.08 4.32049 302.114 4.32049 300.92C4.32049 299.726 3.3546 298.76 2.16024 298.76ZM15.0801 298.76C13.8858 298.76 12.9199 299.726 12.9199 300.92C12.9199 302.114 13.8858 303.08 15.0801 303.08C16.2745 303.08 17.2404 302.114 17.2404 300.92C17.2404 299.726 16.2745 298.76 15.0801 298.76ZM28 298.76C26.8056 298.76 25.8398 299.725 25.8398 300.92C25.8398 302.114 26.8056 303.08 28 303.08C29.1944 303.08 30.1602 302.114 30.1602 300.92C30.1602 299.726 29.1943 298.76 28 298.76ZM40.9199 298.76C39.7255 298.76 38.7596 299.726 38.7596 300.92C38.7596 302.114 39.7255 303.08 40.9199 303.08C42.1142 303.08 43.0801 302.114 43.0801 300.92C43.0749 299.731 42.109 298.765 40.9199 298.76ZM53.8397 298.76C52.6454 298.76 51.6795 299.726 51.6795 300.92C51.6795 302.114 52.6454 303.08 53.8398 303.08C55.0341 303.08 56 302.114 56 300.92C55.9948 299.731 55.0289 298.765 53.8397 298.76ZM2.16024 311.68C0.965878 311.68 9.17241e-07 312.645 9.17241e-07 313.84C9.17241e-07 315.034 0.965893 316 2.16025 316C3.35461 316 4.32049 315.034 4.32049 313.84C4.32049 312.645 3.3546 311.68 2.16024 311.68ZM15.0801 311.68C13.8857 311.68 12.9199 312.645 12.9199 313.84C12.9199 315.034 13.8858 316 15.0801 316C16.2745 316 17.2404 315.034 17.2404 313.84C17.2404 312.645 16.2745 311.68 15.0801 311.68ZM28 311.68C26.8056 311.68 25.8398 312.645 25.8398 313.84C25.8398 315.034 26.8056 316 28 316C29.1944 316 30.1602 315.034 30.1602 313.84C30.1602 312.645 29.1944 311.68 28 311.68ZM40.9199 311.68C39.7255 311.68 38.7596 312.645 38.7596 313.84C38.7596 315.034 39.7255 316 40.9199 316C42.1142 316 43.0801 315.034 43.0801 313.84C43.0801 312.645 42.1142 311.68 40.9199 311.68ZM53.8397 311.68C52.6454 311.68 51.6795 312.645 51.6795 313.84C51.6795 315.034 52.6454 316 53.8398 316C55.0341 316 56 315.034 56 313.84C56 312.645 55.0289 311.685 53.8397 311.68Z" />
</svg>
