<svg width="102" height="16" viewBox="0 0 102 16" fill="none" xmlns="http://www.w3.org/2000/svg">
<path d="M6.61288 10.8652C6.72743 11.123 6.8038 11.344 6.91835 11.6018C7.22382 12.2648 7.68203 12.8909 8.17842 13.4434C8.63663 13.959 9.20938 14.401 9.82033 14.7693C10.0876 14.9535 10.4313 15.1008 10.7367 15.2113C11.1568 15.3954 11.5386 15.5059 11.9586 15.6164C12.6459 15.8006 13.4096 15.8006 14.0969 15.7638C14.8988 15.6901 15.6625 15.5059 16.388 15.2481C17.0753 14.9903 17.7244 14.6588 18.3354 14.2905C18.3735 14.2537 18.4117 14.2537 18.4499 14.2168C18.5263 14.3273 18.6408 14.401 18.7172 14.4747C18.9845 14.7325 19.2899 14.9166 19.5954 15.1376C19.9391 15.3586 20.3591 15.5428 20.7409 15.6901C21.1228 15.8374 21.5046 15.8743 21.9246 15.9479C22.2683 15.9847 22.6501 16.0216 22.9938 15.9847C23.4138 15.9847 23.7957 15.9111 24.2157 15.8006C24.6357 15.7269 25.0557 15.5796 25.4376 15.4323C26.7358 14.9535 27.9195 14.2168 28.9505 13.3697C29.1032 13.6275 29.256 13.8485 29.4469 14.0695C29.6378 14.3273 29.8669 14.5483 30.1342 14.7325C30.4397 14.9903 30.7833 15.1745 31.1652 15.3586C31.5088 15.5059 31.8143 15.6164 32.1961 15.6901C32.5398 15.7638 32.9216 15.8006 33.3035 15.8006C33.6853 15.8006 34.0671 15.7269 34.449 15.6533C34.8308 15.5796 35.2127 15.4691 35.5945 15.3218C37.0073 14.7693 38.191 13.9222 39.222 12.8173C39.3747 12.6699 39.5274 12.4858 39.6802 12.3016C39.8329 12.4489 39.9857 12.6331 40.1384 12.7804C40.3675 13.0382 40.6348 13.2592 40.9403 13.4434C41.2839 13.7012 41.6657 13.959 42.0476 14.1432C42.3912 14.3273 42.7349 14.4747 43.1167 14.622C43.4986 14.7693 43.8804 14.843 44.2623 14.8798C45.0641 14.9903 45.866 14.8798 46.6678 14.7325C47.3933 14.5852 48.0807 14.3273 48.7298 14.0695C49.4553 13.7749 50.1044 13.4066 50.7535 12.9646C51.3263 12.5963 51.8227 12.1543 52.3191 11.6755C52.3954 11.786 52.4336 11.9333 52.51 12.0438C52.7009 12.4121 52.93 12.7436 53.1591 13.0382C53.35 13.2961 53.5791 13.5171 53.8082 13.738C54.0755 13.959 54.3428 14.18 54.6483 14.3642C54.9156 14.5483 55.2211 14.6957 55.5265 14.8061C55.9084 14.9535 56.2902 15.1008 56.7102 15.1745C57.4357 15.3218 58.1612 15.3218 58.8867 15.2481C59.2685 15.2113 59.6504 15.1376 60.0322 15.0271C60.4522 14.9166 60.8723 14.7325 61.2923 14.5483C61.9796 14.2537 62.5906 13.8485 63.1633 13.3697C63.6215 13.0382 64.0415 12.6331 64.4234 12.228C64.4998 12.3016 64.5761 12.4121 64.6525 12.4858C64.8816 12.7436 65.1489 12.9646 65.4162 13.1856C65.9889 13.6275 66.6762 13.9222 67.4017 14.1064C67.7836 14.18 68.1654 14.2168 68.5472 14.2537C68.8909 14.2905 69.2728 14.2537 69.6164 14.2168C69.9982 14.18 70.3801 14.1064 70.7619 13.9959C71.1819 13.8854 71.5638 13.738 71.9456 13.5907C72.6329 13.3329 73.2821 13.0014 73.9312 12.6331C74.6185 12.228 75.2676 11.7123 75.8404 11.1967C76.1077 10.9757 76.375 10.7179 76.6041 10.4601C76.6804 10.5337 76.7568 10.5706 76.8332 10.6442C77.1004 10.8652 77.4059 11.0494 77.7496 11.2335C78.0932 11.3808 78.4369 11.5282 78.7805 11.6387C79.1242 11.7492 79.5061 11.786 79.8879 11.8228C80.3079 11.8596 80.7279 11.8228 81.148 11.786C81.4916 11.7492 81.7971 11.6755 82.1026 11.565C82.4462 11.4545 82.7899 11.3072 83.0953 11.123C83.4008 10.9757 83.6681 10.7915 83.9354 10.6074C84.279 10.3496 84.6227 10.0918 84.9282 9.7971C85.0045 9.76027 85.0427 9.68661 85.0809 9.61295C85.0809 9.64978 85.1191 9.64978 85.1191 9.68661C85.3482 9.98126 85.6537 10.2391 85.9591 10.4969C86.2264 10.7179 86.5319 10.9389 86.8755 11.0862C87.0283 11.1599 87.2192 11.2335 87.4101 11.3072C87.5629 11.3808 87.7156 11.4177 87.8683 11.4545C88.212 11.565 88.5938 11.6018 88.9757 11.6018C89.4339 11.6018 89.8921 11.5282 90.3121 11.4545C90.6558 11.3808 90.9994 11.2703 91.3431 11.123C91.5722 11.0125 91.7631 10.902 91.954 10.7915C92.0686 10.8652 92.1449 10.9389 92.2595 11.0125C92.4886 11.1967 92.7559 11.344 92.985 11.4913C93.2523 11.6387 93.5577 11.7492 93.8632 11.8965C94.5123 12.1543 95.1997 12.2648 95.887 12.3385C96.4597 12.4121 97.0707 12.4121 97.6434 12.3753C97.9871 12.3753 98.3307 12.3385 98.6362 12.3016C99.1708 12.228 99.7054 12.1543 100.202 11.9701C100.316 11.9333 100.469 11.8596 100.584 11.8228C100.736 11.7492 100.889 11.6387 101.042 11.4913C101.118 11.4177 101.156 11.344 101.233 11.2703C101.309 11.1599 101.385 11.0494 101.424 10.902C101.462 10.7547 101.462 10.6074 101.5 10.4601C101.5 10.2759 101.462 10.0918 101.347 9.94443C101.195 9.72344 100.965 9.53928 100.698 9.46562C100.431 9.39196 100.125 9.42879 99.8581 9.57611C99.7435 9.64978 99.5908 9.76027 99.5144 9.87076C99.4762 9.87076 99.3999 9.9076 99.3617 9.9076C99.0944 9.98126 98.8271 10.0181 98.5598 10.0918C98.3689 10.1286 98.2162 10.1286 98.0253 10.1654C97.6434 10.2022 97.2616 10.2022 96.9179 10.2022C96.5743 10.2022 96.2306 10.1654 95.8488 10.1286C95.6197 10.0918 95.3524 10.0549 95.1233 9.98126C94.8942 9.94443 94.6651 9.83393 94.436 9.76027C94.1305 9.61295 93.825 9.46562 93.5196 9.28146C93.5959 9.17097 93.6723 9.06048 93.7868 8.94998C94.1305 8.43435 94.436 7.88188 94.7414 7.36624C95.0087 6.88744 95.2378 6.40863 95.4669 5.89299C95.6197 5.48785 95.7724 5.11954 95.8106 4.67756C95.8106 4.41975 95.7724 4.1251 95.7342 3.86728C95.696 3.68312 95.6197 3.49897 95.5433 3.35164C95.4669 3.20432 95.4288 3.09382 95.3524 2.98333C95.1996 2.72551 95.0087 2.46769 94.8178 2.2467C94.6269 2.02572 94.4742 1.84156 94.2451 1.6574C94.016 1.43642 93.7105 1.32592 93.405 1.21543C93.3668 1.21543 93.2905 1.1786 93.2523 1.1786C93.0995 1.14177 92.9468 1.14177 92.8323 1.14177C92.6413 1.14177 92.4504 1.1786 92.2213 1.21543C92.0686 1.25226 91.954 1.28909 91.8013 1.36275C91.6104 1.43642 91.4576 1.54691 91.3431 1.6574C91.114 1.84156 90.9612 2.06255 90.7703 2.28353C90.5794 2.50452 90.4648 2.76234 90.3503 3.02016C90.1975 3.35164 90.0448 3.71995 89.9685 4.05143C89.8921 4.34608 89.8157 4.67756 89.7775 5.00904C89.7393 5.37736 89.7012 5.70884 89.7012 6.07715C89.7012 6.40863 89.7393 6.70328 89.7775 7.03476C89.8157 7.36624 89.8921 7.69772 90.0066 7.99237C90.083 8.28702 90.2357 8.58167 90.3885 8.91315C90.4267 9.02365 90.503 9.13414 90.5412 9.24463C90.4648 9.28146 90.3885 9.3183 90.2739 9.39196C89.9685 9.50245 89.6248 9.57611 89.3193 9.61295C89.052 9.64978 88.7847 9.64978 88.5175 9.61295C88.2884 9.57611 88.0592 9.50245 87.792 9.42879C87.5629 9.3183 87.3338 9.2078 87.1428 9.06048C86.8374 8.80266 86.5319 8.54484 86.2646 8.25019C86.2264 8.21336 86.2264 8.17653 86.1882 8.1397C86.6083 7.5504 86.9519 6.92427 87.2574 6.26131C87.6392 5.52468 87.9447 4.7144 88.2502 3.94094C88.3647 3.64629 88.4411 3.35164 88.5556 3.05699C88.6702 2.72551 88.6702 2.3572 88.5938 1.98889C88.5556 1.6574 88.4029 1.39959 88.2502 1.10494C88.1738 0.957611 88.0211 0.810287 87.8683 0.699793C87.6774 0.515637 87.4865 0.441975 87.2192 0.368312C87.0665 0.331481 86.9137 0.331481 86.7228 0.29465C86.6846 0.29465 86.6083 0.29465 86.5319 0.29465C86.3792 0.29465 86.2646 0.331481 86.1119 0.368312C85.921 0.405143 85.7682 0.478806 85.6155 0.552468C85.4627 0.626131 85.31 0.736624 85.1955 0.847118C85.0809 0.957611 84.9663 1.03127 84.8518 1.14177C84.7372 1.25226 84.6227 1.39959 84.5081 1.54691C84.279 1.87839 84.1263 2.2467 83.9736 2.57818C83.859 2.90967 83.7445 3.24115 83.6681 3.57263C83.5917 3.94094 83.5154 4.30925 83.4772 4.67756C83.439 5.00904 83.4008 5.37736 83.4008 5.70884C83.4008 6.11398 83.4772 6.51912 83.5154 6.92427C83.5535 7.25575 83.6681 7.5504 83.7826 7.88188C83.439 8.25019 83.0572 8.6185 82.6371 8.94998C82.2553 9.2078 81.8353 9.46562 81.4152 9.64978C81.0716 9.76027 80.7661 9.87076 80.4225 9.9076C80.117 9.94443 79.8115 9.94443 79.506 9.9076C79.1242 9.83393 78.7806 9.76027 78.4369 9.61295C78.2078 9.50245 77.9787 9.39196 77.7496 9.24463C77.6732 9.17097 77.5968 9.13414 77.5205 9.06048C77.7878 8.69217 78.0551 8.32385 78.3223 7.91871C78.7042 7.32941 78.9715 6.66645 79.2388 6.00349C79.5061 5.30369 79.7352 4.56707 79.8497 3.79361C79.9261 3.4253 79.9643 3.09382 79.9261 2.72551C79.9261 2.39403 79.8497 2.02572 79.7733 1.69424C79.7352 1.54691 79.697 1.39959 79.6206 1.28909C79.5442 1.14177 79.506 0.994443 79.4297 0.847118C79.3915 0.810287 79.3915 0.773455 79.3533 0.736624C79.2769 0.626131 79.2006 0.552468 79.086 0.441975C78.9715 0.368312 78.8951 0.29465 78.7805 0.220987C78.666 0.184156 78.5515 0.110494 78.4369 0.0736624C78.246 0.0368312 78.0932 0 77.9023 0C77.8641 0 77.7878 0 77.7496 0C77.635 0 77.4823 0.0368312 77.3677 0.0736624C77.215 0.110494 77.0241 0.220987 76.9095 0.29465C76.7568 0.368312 76.6041 0.515637 76.4895 0.626131C76.2222 0.847118 76.0313 1.14177 75.8404 1.39959C75.6113 1.73107 75.4204 2.13621 75.2676 2.50452C75.0003 3.16748 74.8858 3.86728 74.8094 4.56707C74.6949 5.34053 74.6567 6.11398 74.6949 6.88744C74.7331 7.5504 74.8858 8.17653 75.1531 8.80266C74.5803 9.39196 73.9694 9.94443 73.3202 10.4601C72.6329 10.9389 71.9074 11.344 71.1056 11.6755C70.4564 11.9333 69.8073 12.1543 69.12 12.2648C68.7 12.3016 68.28 12.3016 67.8599 12.2648C67.5545 12.228 67.249 12.1175 66.9435 12.007C66.6762 11.8965 66.409 11.7492 66.1798 11.565C65.9507 11.3808 65.7598 11.1967 65.5689 10.9757C65.4925 10.8652 65.4162 10.7915 65.3398 10.6811C65.4925 10.4601 65.6835 10.2391 65.8362 9.98126C66.2562 9.35513 66.6381 8.69217 66.9435 8.0292C67.249 7.36624 67.5163 6.70328 67.6308 6.00349C67.7072 5.63518 67.7454 5.26686 67.7454 4.89855C67.7454 4.49341 67.669 4.05143 67.5163 3.64629C67.4781 3.49897 67.4017 3.35164 67.3254 3.16748C67.2872 3.05699 67.2108 2.9465 67.1344 2.87283C67.0199 2.76234 66.9435 2.65185 66.829 2.54135C66.7144 2.43086 66.5235 2.32037 66.3708 2.28353C66.218 2.2467 66.0653 2.2467 65.9126 2.2467C65.7598 2.2467 65.5689 2.28353 65.4544 2.32037C65.0725 2.43086 64.767 2.72551 64.4998 2.98333C64.0034 3.49897 63.7361 4.16193 63.4688 4.78806C63.1633 5.52468 63.0488 6.29814 62.9342 7.07159C62.8578 7.80822 62.896 8.54484 63.0106 9.28146C63.0869 9.61295 63.1633 9.98126 63.2397 10.3127C62.7051 10.902 62.1323 11.4545 61.5214 11.9333C61.025 12.3016 60.4523 12.5963 59.8795 12.8541C59.4213 13.0382 58.9631 13.1487 58.5049 13.2224C58.0467 13.2592 57.5503 13.2592 57.0921 13.2224C56.7102 13.1487 56.3666 13.0751 56.0229 12.9278C55.6793 12.7804 55.3738 12.5963 55.0683 12.4121C54.7628 12.1911 54.5337 11.9333 54.2665 11.6387C53.9992 11.2703 53.7701 10.8652 53.5791 10.4601C53.5028 10.3127 53.4646 10.1286 53.3882 9.98126C53.5028 9.83393 53.6173 9.68661 53.7319 9.53928C54.1519 8.98682 54.5337 8.36068 54.9156 7.73455C55.2974 7.07159 55.6029 6.33497 55.7556 5.59834C55.832 5.26686 55.8702 4.89855 55.8702 4.56707C55.8702 4.19876 55.832 3.83045 55.7556 3.46213C55.7174 3.27798 55.6793 3.13065 55.6411 2.9465C55.6029 2.79917 55.5265 2.61502 55.412 2.46769C55.3738 2.39403 55.3356 2.3572 55.2592 2.28353C55.1829 2.17304 55.1065 2.09938 54.9919 2.06255C54.801 1.95205 54.6101 1.87839 54.4192 1.84156C54.2283 1.80473 54.1137 1.80473 53.9228 1.84156C53.7319 1.87839 53.5791 1.87839 53.4264 1.95205C53.2737 2.02572 53.1209 2.09938 52.9682 2.17304C52.8155 2.2467 52.6627 2.39403 52.5482 2.50452C52.51 2.54135 52.4718 2.57818 52.4336 2.61502C52.3573 2.72551 52.2809 2.79917 52.2045 2.90967C52.1281 3.05699 52.0136 3.16748 51.9372 3.31481C51.8609 3.46213 51.7845 3.64629 51.7081 3.79361C51.6318 3.97777 51.5554 4.19876 51.479 4.38291C51.2499 5.08271 51.1736 5.7825 51.1354 6.51912C51.0972 7.29258 51.2117 8.06603 51.3263 8.83949C51.3645 9.02365 51.4027 9.17097 51.4027 9.35513C50.8681 9.94443 50.3335 10.4969 49.7226 10.9757C49.0352 11.4545 48.3098 11.8965 47.5079 12.228C47.2024 12.3385 46.8969 12.4489 46.5915 12.5226C46.2096 12.6331 45.866 12.7068 45.4841 12.7436C45.0641 12.7804 44.6441 12.8173 44.1859 12.7804C43.8422 12.7068 43.5368 12.6331 43.2313 12.5226C42.7349 12.3016 42.2767 12.0438 41.8567 11.7492C41.4366 11.4177 41.0548 11.0494 40.7111 10.6442C40.7111 10.6074 40.673 10.6074 40.673 10.5706C41.0548 10.0549 41.3603 9.50245 41.6657 8.94998C42.0094 8.32385 42.3149 7.66089 42.544 6.99793C42.6585 6.66645 42.7731 6.33497 42.8494 5.96666C42.8876 5.7825 42.8876 5.59834 42.9258 5.41419C42.9258 5.1932 42.8876 4.93538 42.8494 4.7144C42.8113 4.38291 42.6203 4.05143 42.5058 3.75678C42.4294 3.60946 42.3149 3.46213 42.2385 3.31481C42.124 3.16748 42.0094 3.02016 41.8567 2.90967C41.5894 2.65185 41.2457 2.43086 40.8257 2.43086C40.6348 2.43086 40.482 2.46769 40.2911 2.46769C40.1766 2.50452 40.1002 2.54135 39.9857 2.57818C39.8711 2.61502 39.7565 2.68868 39.642 2.72551C39.4893 2.79917 39.3365 2.9465 39.222 3.02016C39.1074 3.13065 38.9929 3.24115 38.8783 3.35164C38.7638 3.49897 38.6492 3.64629 38.5728 3.79361C38.4583 3.94094 38.4201 4.1251 38.3437 4.27242C38.0383 4.97221 37.9237 5.74567 37.8474 6.48229C37.771 7.21892 37.8474 7.95554 37.9619 8.65533C38.0383 9.24463 38.2292 9.7971 38.4583 10.3127C38.191 10.6442 37.8855 10.9757 37.5801 11.3072C37.2746 11.6387 36.8928 11.9701 36.5491 12.228C36.0145 12.5963 35.4799 12.9278 34.869 13.1856C34.4108 13.3697 33.9526 13.4802 33.4944 13.5539C33.2271 13.5907 32.998 13.5907 32.7307 13.5539C32.4634 13.5171 32.2343 13.4434 31.967 13.3329C31.7761 13.2224 31.5852 13.1487 31.3943 13.0014C31.2033 12.8541 31.0124 12.6699 30.8597 12.4858C30.707 12.2648 30.5924 12.0438 30.4778 11.8228C30.4397 11.7492 30.4397 11.6755 30.4015 11.6387C30.5542 11.4913 30.6688 11.3072 30.8215 11.1599C31.0506 10.8652 31.3179 10.5706 31.547 10.2391C31.7761 9.9076 31.967 9.57611 32.1961 9.2078C32.7307 8.32385 33.1507 7.36624 33.5707 6.40863C33.7235 6.04032 33.9144 5.67201 34.0671 5.30369C34.1817 4.97221 34.3344 4.64073 34.3344 4.30925C34.3726 3.90411 34.2199 3.49897 33.9908 3.16748C33.9526 3.09382 33.8762 3.02016 33.838 2.9465C33.7617 2.836 33.6471 2.76234 33.5326 2.68868C33.3798 2.57818 33.2271 2.50452 33.0744 2.46769C32.9216 2.43086 32.7307 2.39403 32.5398 2.3572C32.3489 2.3572 32.1579 2.3572 31.967 2.39403C31.5852 2.46769 31.2797 2.57818 30.9361 2.76234C30.8215 3.24115 30.6688 3.35164 30.516 3.46213C30.3633 3.60946 30.2106 3.75678 30.0578 3.90411C29.5996 4.41974 29.1796 4.97221 28.8741 5.59834C28.7214 5.92982 28.6068 6.26131 28.4923 6.59279C28.3777 6.9611 28.3395 7.32941 28.2632 7.73455C28.1486 8.47118 28.1104 9.17097 28.1104 9.9076C28.1104 10.2759 28.1486 10.6074 28.1868 10.9757C27.805 11.344 27.4231 11.6755 27.0031 11.9701C26.3158 12.4489 25.5903 12.8909 24.8266 13.2224C24.292 13.4434 23.7193 13.5907 23.1465 13.7012C22.7647 13.738 22.421 13.738 22.0774 13.7012C21.8101 13.6644 21.5428 13.5907 21.2755 13.5171C21.0082 13.4066 20.7409 13.2224 20.4737 13.0751C20.3973 13.0014 20.2827 12.9278 20.2064 12.8541C20.7409 12.3753 21.1991 11.8228 21.6574 11.2703C22.1537 10.6442 22.5356 9.98126 22.8411 9.28146C22.9938 8.94998 23.1083 8.6185 23.1847 8.28702C23.2993 7.91871 23.3374 7.51357 23.3756 7.10842C23.4138 6.74011 23.3374 6.33497 23.2611 5.96666C23.2229 5.81933 23.1847 5.63518 23.1083 5.48785C22.9938 5.23003 22.8792 5.00904 22.7265 4.78806C22.612 4.6039 22.4592 4.45658 22.3447 4.30925C22.2301 4.16193 22.0392 4.0146 21.8865 3.94094C21.6192 3.75678 21.2755 3.64629 20.97 3.60946C20.7791 3.57263 20.5882 3.57263 20.3591 3.57263C20.1682 3.57263 19.9391 3.60946 19.7482 3.64629C19.71 3.64629 19.6336 3.68312 19.5954 3.68312C19.4427 3.71995 19.3281 3.79361 19.1754 3.83045C18.9463 3.94094 18.7172 4.08826 18.5263 4.27242C18.4117 4.38291 18.259 4.49341 18.1444 4.6039C17.9917 4.75123 17.8771 4.93538 17.7626 5.08271C17.5335 5.37736 17.3808 5.74567 17.228 6.07715C17.1135 6.40863 16.9989 6.70328 16.8844 7.03476C16.7698 7.47674 16.6934 7.91871 16.6553 8.39752C16.5789 9.13414 16.5407 9.87076 16.6553 10.5706C16.6934 10.9757 16.7698 11.344 16.8844 11.7123C16.9607 12.007 17.0753 12.3016 17.1898 12.5594C16.6934 12.8909 16.1589 13.1487 15.6243 13.4066C15.0897 13.6275 14.517 13.7749 13.906 13.8485C13.486 13.8854 13.1041 13.8854 12.6841 13.8485C12.2259 13.7749 11.8059 13.6644 11.3859 13.4802C10.9658 13.2961 10.6222 13.0751 10.2404 12.8173C9.85851 12.5226 9.51486 12.1911 9.20938 11.8228C8.86573 11.3808 8.59844 10.9389 8.36934 10.4232C8.29297 10.2391 8.2166 10.0549 8.17842 9.9076C9.4003 9.17097 10.5458 8.36069 11.615 7.47674C11.8823 7.25575 12.1877 6.99793 12.455 6.74011C12.7223 6.48229 12.9896 6.22447 13.2187 6.00349C13.4478 5.7825 13.6769 5.56151 13.8678 5.30369C14.0969 5.00904 14.2497 4.67756 14.3642 4.30925C14.4406 4.0146 14.4406 3.68312 14.4024 3.38847C14.3642 3.05699 14.2879 2.76234 14.1351 2.46769C13.8296 1.84156 13.3333 1.36275 12.7223 1.03127C12.5696 0.957611 12.3787 0.883949 12.2259 0.810287C12.0732 0.736624 11.9204 0.699793 11.7295 0.699793C11.3859 0.626131 11.004 0.662962 10.6604 0.699793C10.3167 0.736624 10.0112 0.847118 9.66759 0.994443C9.28575 1.1786 8.9421 1.36275 8.63663 1.62057C7.49111 2.50452 6.76561 3.83045 6.3074 5.15637C6.0783 5.81933 5.96375 6.55596 5.92556 7.29258C5.88738 8.06604 5.96375 8.87632 6.11648 9.61295C6.15467 9.76027 6.19285 9.94443 6.23104 10.0918C5.35281 10.6074 4.39821 11.0494 3.48179 11.4545C3.13814 11.6018 2.83266 11.7123 2.48901 11.786C2.2599 11.8228 1.95443 11.9333 1.64896 12.007C1.53441 12.007 1.41986 12.007 1.30531 12.007H1.26712C1.30531 11.9701 1.34349 11.9333 1.38167 11.8965C1.53441 11.786 1.68715 11.6755 1.83988 11.565C1.99262 11.4545 2.0308 11.2703 1.95443 11.123C1.87807 11.0125 1.64896 10.902 1.53441 11.0125C1.34349 11.123 1.19075 11.2335 0.999834 11.3808C0.923467 11.4545 0.847099 11.5282 0.770731 11.6018C0.694363 11.6755 0.617995 11.786 0.541627 11.8965C0.465259 12.007 0.503443 12.1911 0.579811 12.2648C0.656179 12.3385 0.770731 12.4121 0.847099 12.4858C0.885283 12.4858 0.923467 12.5226 0.961651 12.5594C1.03802 12.5963 1.0762 12.5963 1.15257 12.6331C1.30531 12.6699 1.41986 12.6699 1.53441 12.6699C1.68715 12.6699 1.8017 12.6331 1.95443 12.6331C2.10717 12.5963 2.29809 12.5594 2.45082 12.5226C2.60356 12.4858 2.79448 12.4489 2.94722 12.4121C3.36724 12.3016 3.74908 12.1543 4.1691 12.007C5.00915 11.6387 5.81101 11.2703 6.61288 10.8652ZM91.954 5.04588C92.0304 4.6039 92.1449 4.16193 92.3359 3.75678C92.4122 3.57263 92.5268 3.38847 92.6413 3.20432C92.6795 3.16748 92.7177 3.09382 92.7559 3.05699H92.7941H92.8323C92.8704 3.05699 92.9086 3.05699 92.9468 3.09382C93.0995 3.24115 93.2905 3.38847 93.4432 3.57263C93.5959 3.75678 93.7105 3.94094 93.825 4.16193C93.8632 4.23559 93.8632 4.30925 93.9014 4.38291C93.9014 4.41974 93.9014 4.49341 93.9014 4.53024C93.8632 4.67756 93.825 4.82489 93.7487 4.93538C93.5196 5.37736 93.2905 5.81933 93.0232 6.26131C92.7559 6.66645 92.4886 7.10842 92.2213 7.51357C92.1068 7.18209 92.0304 6.85061 91.954 6.51912C91.9158 6.04032 91.9158 5.56151 91.954 5.04588ZM86.9519 2.06255C86.9137 2.06255 86.9137 2.06255 86.9519 2.06255V2.06255ZM86.8755 1.98889C86.9137 2.02572 86.9137 2.02572 86.9137 2.06255C86.9137 2.02572 86.8755 2.02572 86.8755 1.98889ZM85.4627 4.53024C85.5391 3.97777 85.6537 3.38847 85.8828 2.87283C85.9973 2.68868 86.0737 2.50452 86.2264 2.32037C86.3028 2.2467 86.3792 2.13621 86.4937 2.06255C86.5701 2.02572 86.6464 1.98889 86.7228 1.95205C86.761 1.95205 86.7992 1.95205 86.8374 1.91522C86.8374 1.91522 86.8374 1.91522 86.8755 1.91522C86.9137 1.95205 86.9519 2.02572 86.9519 2.06255C86.9519 2.09938 86.9519 2.13621 86.9901 2.13621C86.9901 2.20987 86.9901 2.28354 86.9901 2.3572C86.9137 2.61502 86.8374 2.87283 86.7228 3.09382C86.4937 3.60946 86.2646 4.08826 86.0355 4.56707C85.8446 4.93538 85.6918 5.26686 85.5009 5.59834C85.5009 5.48785 85.5009 5.37736 85.5009 5.26686C85.4246 5.08271 85.4246 4.82489 85.4627 4.53024ZM76.7568 4.75123C76.8332 4.1251 76.9859 3.5358 77.1768 2.9465C77.2914 2.68868 77.4441 2.43086 77.635 2.17304C77.7496 2.06255 77.8641 1.95205 77.9787 1.84156C78.0169 1.80473 78.0551 1.80473 78.0932 1.7679C78.0932 1.80473 78.1314 1.80473 78.1314 1.84156C78.2078 1.98889 78.246 2.17304 78.246 2.32037C78.2842 2.57818 78.2842 2.87283 78.246 3.13065C78.0932 4.0146 77.7878 4.86172 77.4441 5.70884C77.2914 6.07715 77.1005 6.44546 76.8714 6.81377C76.795 6.92427 76.7568 6.99793 76.6804 7.10842C76.6423 6.33497 76.6804 5.52468 76.7568 4.75123ZM64.8434 7.03476C64.8816 6.74011 64.958 6.40863 65.0343 6.11398C65.1107 5.74567 65.2634 5.41419 65.378 5.08271C65.4925 4.82489 65.6453 4.6039 65.798 4.34608C65.8744 4.27242 65.9507 4.19876 66.0271 4.1251C66.1035 4.30925 66.1417 4.53024 66.1798 4.7144C66.1798 4.97221 66.1798 5.1932 66.1798 5.45102C66.1035 5.96666 65.9507 6.44546 65.7598 6.92427C65.4925 7.47674 65.1871 8.0292 64.8434 8.54484C64.8434 8.36069 64.8052 8.17653 64.8052 7.99237C64.8052 7.69772 64.8052 7.36624 64.8434 7.03476ZM53.0446 6.18764C53.1209 5.67201 53.2737 5.11954 53.4646 4.64073C53.541 4.45658 53.6555 4.30925 53.7701 4.1251C53.8464 4.05143 53.8846 3.97777 53.961 3.90411C53.9992 3.86728 54.0373 3.86728 54.0755 3.83045C54.0755 3.86728 54.1137 3.94094 54.1137 3.97777C54.1519 4.38291 54.1519 4.78806 54.1137 5.1932C54.0373 5.56151 53.9228 5.92982 53.7701 6.26131C53.541 6.74011 53.2737 7.18209 53.0064 7.62406C53.0064 7.51357 53.0064 7.40307 53.0064 7.29258C52.9682 6.92427 53.0064 6.55596 53.0446 6.18764ZM39.7947 6.44546C39.8711 6.00349 39.9475 5.56151 40.1384 5.11954C40.2148 5.00904 40.2911 4.86172 40.3675 4.75123C40.4439 4.64073 40.5584 4.56707 40.6348 4.49341C40.673 4.45658 40.7111 4.45658 40.7493 4.41974H40.7875C40.8257 4.45658 40.8639 4.49341 40.9021 4.53024C40.9784 4.64073 41.0166 4.7144 41.093 4.82489C41.1694 4.97221 41.2075 5.15637 41.2457 5.30369C41.2457 5.45102 41.2457 5.59834 41.2457 5.70884C41.1694 6.11398 41.0548 6.48229 40.8639 6.85061C40.5966 7.47674 40.2529 8.10287 39.9093 8.69217C39.9093 8.69217 39.9093 8.69217 39.9093 8.729C39.8711 8.58167 39.8711 8.43435 39.8329 8.28702C39.7565 7.66089 39.7565 7.07159 39.7947 6.44546ZM32.2343 4.45658C32.2343 4.41975 32.2343 4.41974 32.2343 4.38291C32.2343 4.38291 32.2343 4.41975 32.2343 4.45658ZM30.1724 8.28702C30.2487 7.69772 30.4015 7.10842 30.5924 6.51912C30.7451 6.22447 30.9361 5.92982 31.127 5.67201C31.3561 5.37736 31.6234 5.11954 31.8907 4.89855C31.967 4.86172 32.0052 4.82489 32.0816 4.78806C32.0434 4.86172 32.0434 4.89855 32.0052 4.97221C31.7761 5.45102 31.547 5.96666 31.2797 6.44546C30.8979 7.21892 30.516 7.95554 30.096 8.69217C30.1724 8.50801 30.1724 8.39752 30.1724 8.28702ZM19.099 8.28702C19.1372 8.06603 19.1754 7.80822 19.2518 7.58723C19.3281 7.29258 19.4045 7.03476 19.5191 6.77694C19.6336 6.55596 19.7482 6.33497 19.8627 6.15081C19.9391 6.04032 20.0536 5.96666 20.1682 5.85616C20.2064 5.81933 20.2827 5.7825 20.3209 5.74567C20.3591 5.74567 20.3973 5.70884 20.4355 5.70884C20.5118 5.70884 20.5882 5.70884 20.7028 5.70884H20.7409C20.7791 5.74567 20.8555 5.81933 20.8937 5.85616C20.97 5.92982 21.0082 6.04032 21.0464 6.11398C21.0846 6.26131 21.161 6.40863 21.161 6.59279C21.161 6.81377 21.161 7.03476 21.161 7.29258C21.0846 7.73455 20.97 8.1397 20.8173 8.54484C20.5118 9.17097 20.13 9.76027 19.71 10.3127C19.5191 10.5337 19.3663 10.7179 19.1754 10.902C19.1372 10.7179 19.0608 10.4969 19.0608 10.3127C18.9845 9.68661 19.0227 8.98681 19.099 8.28702ZM7.94931 6.48229C7.9875 6.22447 8.02568 6.00349 8.10205 5.74567C8.17842 5.45102 8.29297 5.1932 8.40752 4.93538C8.63663 4.41974 8.9421 3.94094 9.24757 3.49897C9.47667 3.24115 9.74396 2.98333 10.0112 2.76234C10.2022 2.61502 10.4313 2.50452 10.6604 2.39403C10.8131 2.32037 10.9658 2.28354 11.1186 2.2467C11.2713 2.2467 11.4622 2.2467 11.615 2.2467C11.7295 2.28354 11.8441 2.32037 11.9586 2.3572C12.1114 2.43086 12.2641 2.50452 12.4168 2.61502C12.5314 2.72551 12.6459 2.836 12.7605 2.9465C12.875 3.09382 12.9514 3.20432 13.0278 3.35164C13.066 3.49897 13.1041 3.64629 13.1423 3.79361C13.1423 3.90411 13.1423 3.97777 13.1423 4.08826C13.1041 4.23559 13.066 4.38291 13.0278 4.49341C12.9514 4.64073 12.8369 4.78806 12.7605 4.93538C11.7677 6.11398 10.6604 7.18209 9.4003 8.10287C8.98028 8.43435 8.52207 8.729 8.06387 9.02365C8.02568 8.87632 7.9875 8.69217 7.94931 8.50801C7.87295 7.84505 7.87295 7.18209 7.94931 6.48229Z" fill=""/>
</svg>
