<svg width="239" height="18" viewBox="0 0 239 18" fill="none" xmlns="http://www.w3.org/2000/svg">
<path d="M219.303 2.21538C214.119 1.8 208.846 1.38462 203.573 0.969231C201.874 0.830769 200.087 0.830769 198.389 0.692308C194.635 0.553846 190.881 0.415385 187.127 0.276923C185.071 0.138462 182.926 0.138462 180.87 0C180.245 0 179.619 0 179.083 0C177.742 0 176.402 0 174.971 0C168.804 0 162.637 0 156.47 0C155.04 0 153.521 0 152.091 0.138462C148.426 0.276923 144.851 0.276923 141.187 0.415385C137.075 0.553846 132.964 0.553846 128.852 0.692308C122.238 0.969231 115.535 1.24615 108.921 1.52308C105.078 1.66154 101.234 1.8 97.3912 1.93846C90.7772 2.35385 84.1632 2.76923 77.5492 3.18462C73.8847 3.46154 70.3096 3.6 66.6451 3.87692C59.763 4.56923 52.8808 5.12308 45.9987 5.67692C42.3342 5.95385 38.6697 6.23077 35.0052 6.64615C28.2125 7.47692 21.3303 8.44615 14.5376 9.41538C13.1075 9.55385 11.5881 9.83077 10.0687 9.96923C7.20857 10.3846 4.25909 11.0769 1.30961 11.6308C1.13085 11.6308 0.952093 11.7692 0.773336 11.7692C0.415823 11.7692 0.147688 12.0462 -0.120446 12.4615C-0.567337 13.1538 -0.746094 13.9846 -0.746094 14.8154C-0.746094 15.6462 -0.567337 16.4769 -0.120446 17.0308C0.237067 17.5846 0.862714 18 1.30961 18C4.88473 17.4462 8.37048 16.7538 11.9456 16.2C15.2526 15.7846 18.5596 15.3692 21.8666 14.9538C25.4417 14.5385 29.0169 13.9846 32.6814 13.5692C34.1114 13.4308 35.5415 13.1538 37.0609 13.0154C42.6917 12.6 48.2332 12.0462 53.864 11.6308C57.3497 11.3538 60.8355 11.0769 64.3213 10.8C65.7513 10.6615 67.1814 10.5231 68.6114 10.3846C74.1529 9.96923 79.6943 9.69231 85.2357 9.27692C88.6321 9.13846 91.9391 8.86154 95.3355 8.72308C96.4974 8.72308 97.57 8.58462 98.7319 8.58462C104.72 8.30769 110.709 8.16923 116.697 7.89231C120.004 7.75385 123.4 7.61539 126.707 7.47692C127.869 7.47692 129.12 7.33846 130.282 7.33846C136.449 7.2 142.617 7.2 148.873 7.06154C152.716 7.06154 156.56 6.92308 160.403 6.92308C166.927 6.92308 173.541 6.92308 180.066 7.06154C181.317 7.06154 182.658 7.2 183.909 7.2C187.574 7.33846 191.149 7.47692 194.813 7.75385C197.495 7.89231 200.266 8.03077 202.947 8.16923C204.913 8.30769 206.79 8.44615 208.756 8.58462C214.387 9 220.107 9.55385 225.738 10.1077C227.168 10.2462 228.598 10.3846 230.028 10.5231C231.548 10.6615 233.157 10.8 234.676 11.0769C234.944 11.0769 235.123 11.2154 235.391 11.3538C236.017 11.4923 236.553 11.4923 237.089 10.9385C237.626 10.5231 237.983 9.69231 238.162 8.86154C238.519 7.06154 237.804 5.12308 236.553 4.56923C235.481 4.15385 234.408 4.01538 233.425 3.73846C232.71 3.6 231.995 3.46154 231.28 3.46154C229.85 3.18462 228.42 3.18462 227.079 2.90769C224.576 2.76923 221.895 2.49231 219.303 2.21538Z" fill="#FFDAC6"/>
</svg>
