<?xml version="1.0" standalone="no"?>
<!DOCTYPE svg PUBLIC "-//W3C//DTD SVG 20010904//EN"
 "http://www.w3.org/TR/2001/REC-SVG-20010904/DTD/svg10.dtd">
<svg version="1.0" xmlns="http://www.w3.org/2000/svg"
 width="512.000000pt" height="512.000000pt" viewBox="0 0 512.000000 512.000000"
 preserveAspectRatio="xMidYMid meet">
<metadata>
Created by potrace 1.11, written by Peter Selinger 2001-2013
</metadata>
<g transform="translate(0.000000,512.000000) scale(0.100000,-0.100000)"
fill="#000000" stroke="none">
<path d="M2375 5114 c-257 -26 -502 -79 -690 -148 -221 -82 -468 -215 -649
-350 -93 -70 -219 -177 -213 -182 1 -2 43 13 91 32 200 79 496 134 726 134
297 0 637 -79 893 -206 l67 -34 68 34 c427 213 958 262 1434 132 68 -19 124
-33 126 -31 7 7 -139 120 -253 197 -133 89 -386 217 -540 274 -138 50 -341
101 -498 125 -126 19 -465 33 -562 23z"/>
<path d="M1440 4350 c-203 -25 -393 -81 -578 -170 -193 -93 -376 -224 -514
-366 -117 -121 -265 -530 -320 -879 -31 -200 -31 -549 0 -750 40 -255 112
-491 218 -715 61 -127 91 -164 239 -288 446 -375 1051 -510 1615 -362 88 23
250 82 250 90 0 3 -41 39 -91 80 -326 267 -567 648 -674 1065 -195 761 71
1582 674 2075 50 41 91 77 91 80 0 19 -265 99 -415 125 -107 19 -389 28 -495
15z"/>
<path d="M3405 4353 c-121 -14 -202 -28 -285 -49 -100 -25 -270 -84 -270 -94
0 -3 41 -39 91 -80 326 -267 567 -648 674 -1065 195 -761 -71 -1582 -674
-2075 -50 -41 -91 -77 -91 -80 0 -8 162 -67 250 -90 270 -71 566 -77 840 -18
249 53 499 168 703 322 81 60 123 123 221 326 117 244 186 467 228 735 31 200
31 549 0 750 -41 264 -113 494 -228 735 -98 204 -141 266 -221 326 -210 157
-454 269 -703 322 -166 36 -401 51 -535 35z"/>
<path d="M2534 4039 c-538 -376 -834 -1023 -763 -1667 30 -279 132 -565 282
-795 126 -194 342 -412 510 -516 l37 -23 37 23 c113 70 272 214 381 344 230
274 372 609 411 967 65 585 -178 1187 -629 1562 -80 66 -189 146 -200 146 -4
0 -33 -19 -66 -41z"/>
<path d="M2535 728 c-244 -126 -597 -208 -895 -208 -230 0 -526 55 -726 134
-48 19 -90 34 -91 32 -6 -5 120 -112 213 -182 129 -95 250 -168 409 -245 245
-118 473 -189 740 -231 201 -31 550 -31 750 0 165 26 361 75 500 126 154 57
407 185 540 274 114 77 260 190 253 197 -2 2 -58 -12 -126 -31 -476 -130
-1007 -81 -1434 132 -37 19 -69 34 -70 34 -2 -1 -30 -15 -63 -32z"/>
</g>
</svg>
